0
SECTION
2
HEADER
9
$INSUNITS
70
4
0
ENDSEC
0
SECTION
2
TABLES
0
TABLE
2
LTYPE
0
LTYPE
72
65
70
64
2
CONTINUOUS
3
______
73
0
40
0
0
ENDTAB
0
TABLE
2
LAYER
0
ENDTAB
0
ENDSEC
0
SECTION
2
ENTITIES
0
LINE
8
0
10
9.25
20
-8.25
11
26.75
21
-8.25
0
LINE
8
0
10
26.75
20
-8.25
11
26.75
21
8.25
0
LINE
8
0
10
26.75
20
8.25
11
9.25
21
8.25
0
LINE
8
0
10
9.25
20
8.25
11
9.25
21
-8.25
0
LINE
8
0
10
9.25
20
8.75
11
26.75
21
8.75
0
LINE
8
0
10
26.75
20
8.75
11
26.75
21
25.25
0
LINE
8
0
10
26.75
20
25.25
11
9.25
21
25.25
0
LINE
8
0
10
9.25
20
25.25
11
9.25
21
8.75
0
LINE
8
0
10
9.25
20
25.75
11
26.75
21
25.75
0
LINE
8
0
10
26.75
20
25.75
11
26.75
21
42.25
0
LINE
8
0
10
26.75
20
42.25
11
9.25
21
42.25
0
LINE
8
0
10
9.25
20
42.25
11
9.25
21
25.75
0
LINE
8
0
10
27.25
20
-8.25
11
44.75
21
-8.25
0
LINE
8
0
10
44.75
20
-8.25
11
44.75
21
8.25
0
LINE
8
0
10
44.75
20
8.25
11
27.25
21
8.25
0
LINE
8
0
10
27.25
20
8.25
11
27.25
21
-8.25
0
LINE
8
0
10
27.25
20
8.75
11
44.75
21
8.75
0
LINE
8
0
10
44.75
20
8.75
11
44.75
21
25.25
0
LINE
8
0
10
44.75
20
25.25
11
27.25
21
25.25
0
LINE
8
0
10
27.25
20
25.25
11
27.25
21
8.75
0
LINE
8
0
10
27.25
20
25.75
11
44.75
21
25.75
0
LINE
8
0
10
44.75
20
25.75
11
44.75
21
42.25
0
LINE
8
0
10
44.75
20
42.25
11
27.25
21
42.25
0
LINE
8
0
10
27.25
20
42.25
11
27.25
21
25.75
0
LINE
8
0
10
45.25
20
-8.25
11
62.75
21
-8.25
0
LINE
8
0
10
62.75
20
-8.25
11
62.75
21
8.25
0
LINE
8
0
10
62.75
20
8.25
11
45.25
21
8.25
0
LINE
8
0
10
45.25
20
8.25
11
45.25
21
-8.25
0
LINE
8
0
10
45.25
20
8.75
11
62.75
21
8.75
0
LINE
8
0
10
62.75
20
8.75
11
62.75
21
25.25
0
LINE
8
0
10
62.75
20
25.25
11
45.25
21
25.25
0
LINE
8
0
10
45.25
20
25.25
11
45.25
21
8.75
0
LINE
8
0
10
45.25
20
25.75
11
62.75
21
25.75
0
LINE
8
0
10
62.75
20
25.75
11
62.75
21
42.25
0
LINE
8
0
10
62.75
20
42.25
11
45.25
21
42.25
0
LINE
8
0
10
45.25
20
42.25
11
45.25
21
25.75
0
LINE
8
0
10
63.25
20
-8.25
11
80.75
21
-8.25
0
LINE
8
0
10
80.75
20
-8.25
11
80.75
21
8.25
0
LINE
8
0
10
80.75
20
8.25
11
63.25
21
8.25
0
LINE
8
0
10
63.25
20
8.25
11
63.25
21
-8.25
0
LINE
8
0
10
63.25
20
8.75
11
80.75
21
8.75
0
LINE
8
0
10
80.75
20
8.75
11
80.75
21
25.25
0
LINE
8
0
10
80.75
20
25.25
11
63.25
21
25.25
0
LINE
8
0
10
63.25
20
25.25
11
63.25
21
8.75
0
LINE
8
0
10
63.25
20
25.75
11
80.75
21
25.75
0
LINE
8
0
10
80.75
20
25.75
11
80.75
21
42.25
0
LINE
8
0
10
80.75
20
42.25
11
63.25
21
42.25
0
LINE
8
0
10
63.25
20
42.25
11
63.25
21
25.75
0
LINE
8
0
10
81.25
20
-8.25
11
98.75
21
-8.25
0
LINE
8
0
10
98.75
20
-8.25
11
98.75
21
8.25
0
LINE
8
0
10
98.75
20
8.25
11
81.25
21
8.25
0
LINE
8
0
10
81.25
20
8.25
11
81.25
21
-8.25
0
LINE
8
0
10
81.25
20
8.75
11
98.75
21
8.75
0
LINE
8
0
10
98.75
20
8.75
11
98.75
21
25.25
0
LINE
8
0
10
98.75
20
25.25
11
81.25
21
25.25
0
LINE
8
0
10
81.25
20
25.25
11
81.25
21
8.75
0
LINE
8
0
10
81.25
20
25.75
11
98.75
21
25.75
0
LINE
8
0
10
98.75
20
25.75
11
98.75
21
42.25
0
LINE
8
0
10
98.75
20
42.25
11
81.25
21
42.25
0
LINE
8
0
10
81.25
20
42.25
11
81.25
21
25.75
0
LINE
8
0
10
99.25
20
-8.25
11
116.75
21
-8.25
0
LINE
8
0
10
116.75
20
-8.25
11
116.75
21
8.25
0
LINE
8
0
10
116.75
20
8.25
11
99.25
21
8.25
0
LINE
8
0
10
99.25
20
8.25
11
99.25
21
-8.25
0
ENDSEC
0
EOF