0
SECTION
2
HEADER
9
$INSUNITS
70
4
0
ENDSEC
0
SECTION
2
TABLES
0
TABLE
2
LTYPE
0
LTYPE
72
65
70
0
2
CONTINUOUS
3
______
73
0
40
0
0
LTYPE
72
65
70
0
2
DASHED
3
_ _ _ 
73
2
40
7.5
49
5
49
-2.5
0
LTYPE
72
65
70
0
2
DOTTED
3
. . . 
73
2
40
1.5
49
0.5
49
-1
0
ENDTAB
0
TABLE
2
LAYER
0
ENDTAB
0
ENDSEC
0
SECTION
2
ENTITIES
0
ARC
8
0
6
CONTINUOUS
10
2
20
-4.2
40
1.5
50
270
51
360
0
LINE
8
0
6
CONTINUOUS
10
2
20
-5.7
11
-1
21
-5.7
0
LINE
8
0
6
CONTINUOUS
10
-1
20
-5.7
11
-1
21
-6.65
0
LINE
8
0
6
CONTINUOUS
10
-1
20
-6.65
11
-3.6
21
-6.65
0
LINE
8
0
6
CONTINUOUS
10
-3.6
20
-6.65
11
-3.6
21
-9.25
0
LINE
8
0
6
CONTINUOUS
10
-3.6
20
-9.25
11
-1
21
-9.25
0
LINE
8
0
6
CONTINUOUS
10
-1
20
-9.25
11
-1
21
-10.2
0
LINE
8
0
6
CONTINUOUS
10
-1
20
-10.2
11
3
21
-10.2
0
LINE
8
0
6
CONTINUOUS
10
3
20
-10.2
11
3
21
-8.7
0
ARC
8
0
6
CONTINUOUS
10
3.5
20
-8.7
40
0.5
50
90
51
180
0
LINE
8
0
6
CONTINUOUS
10
3.5
20
-8.2
11
8
21
-8.2
0
LINE
8
0
6
CONTINUOUS
10
8
20
-8.2
11
8
21
-7
0
LINE
8
0
6
CONTINUOUS
10
8
20
-7
11
10.6
21
-7
0
LINE
8
0
6
CONTINUOUS
10
10.6
20
-7
11
10.6
21
-4.45
0
LINE
8
0
6
CONTINUOUS
10
10.6
20
-4.45
11
8
21
-4.45
0
LINE
8
0
6
CONTINUOUS
10
8
20
-4.45
11
8
21
-3.5
0
LINE
8
0
6
CONTINUOUS
10
8
20
-3.5
11
3.5
21
-3.5
0
LINE
8
0
6
CONTINUOUS
10
3.5
20
-3.5
11
3.5
21
-4.2
0
ARC
8
0
6
CONTINUOUS
10
2
20
12.8
40
1.5
50
270
51
360
0
LINE
8
0
6
CONTINUOUS
10
2
20
11.3
11
-1
21
11.3
0
LINE
8
0
6
CONTINUOUS
10
-1
20
11.3
11
-1
21
10.35
0
LINE
8
0
6
CONTINUOUS
10
-1
20
10.35
11
-3.6
21
10.35
0
LINE
8
0
6
CONTINUOUS
10
-3.6
20
10.35
11
-3.6
21
7.75
0
LINE
8
0
6
CONTINUOUS
10
-3.6
20
7.75
11
-1
21
7.75
0
LINE
8
0
6
CONTINUOUS
10
-1
20
7.75
11
-1
21
6.8
0
LINE
8
0
6
CONTINUOUS
10
-1
20
6.8
11
3
21
6.8
0
LINE
8
0
6
CONTINUOUS
10
3
20
6.8
11
3
21
8.3
0
ARC
8
0
6
CONTINUOUS
10
3.5
20
8.3
40
0.5
50
90
51
180
0
LINE
8
0
6
CONTINUOUS
10
3.5
20
8.8
11
8
21
8.8
0
LINE
8
0
6
CONTINUOUS
10
8
20
8.8
11
8
21
10
0
LINE
8
0
6
CONTINUOUS
10
8
20
10
11
10.6
21
10
0
LINE
8
0
6
CONTINUOUS
10
10.6
20
10
11
10.6
21
12.55
0
LINE
8
0
6
CONTINUOUS
10
10.6
20
12.55
11
8
21
12.55
0
LINE
8
0
6
CONTINUOUS
10
8
20
12.55
11
8
21
13.5
0
LINE
8
0
6
CONTINUOUS
10
8
20
13.5
11
3.5
21
13.5
0
LINE
8
0
6
CONTINUOUS
10
3.5
20
13.5
11
3.5
21
12.8
0
ARC
8
0
6
CONTINUOUS
10
21
20
-4.2
40
1.5
50
270
51
360
0
LINE
8
0
6
CONTINUOUS
10
21
20
-5.7
11
18
21
-5.7
0
LINE
8
0
6
CONTINUOUS
10
18
20
-5.7
11
18
21
-6.65
0
LINE
8
0
6
CONTINUOUS
10
18
20
-6.65
11
15.4
21
-6.65
0
LINE
8
0
6
CONTINUOUS
10
15.4
20
-6.65
11
15.4
21
-9.25
0
LINE
8
0
6
CONTINUOUS
10
15.4
20
-9.25
11
18
21
-9.25
0
LINE
8
0
6
CONTINUOUS
10
18
20
-9.25
11
18
21
-10.2
0
LINE
8
0
6
CONTINUOUS
10
18
20
-10.2
11
22
21
-10.2
0
LINE
8
0
6
CONTINUOUS
10
22
20
-10.2
11
22
21
-8.7
0
ARC
8
0
6
CONTINUOUS
10
22.5
20
-8.7
40
0.5
50
90
51
180
0
LINE
8
0
6
CONTINUOUS
10
22.5
20
-8.2
11
27
21
-8.2
0
LINE
8
0
6
CONTINUOUS
10
27
20
-8.2
11
27
21
-7
0
LINE
8
0
6
CONTINUOUS
10
27
20
-7
11
29.6
21
-7
0
LINE
8
0
6
CONTINUOUS
10
29.6
20
-7
11
29.6
21
-4.45
0
LINE
8
0
6
CONTINUOUS
10
29.6
20
-4.45
11
27
21
-4.45
0
LINE
8
0
6
CONTINUOUS
10
27
20
-4.45
11
27
21
-3.5
0
LINE
8
0
6
CONTINUOUS
10
27
20
-3.5
11
22.5
21
-3.5
0
LINE
8
0
6
CONTINUOUS
10
22.5
20
-3.5
11
22.5
21
-4.2
0
ARC
8
0
6
CONTINUOUS
10
21
20
12.8
40
1.5
50
270
51
360
0
LINE
8
0
6
CONTINUOUS
10
21
20
11.3
11
18
21
11.3
0
LINE
8
0
6
CONTINUOUS
10
18
20
11.3
11
18
21
10.35
0
LINE
8
0
6
CONTINUOUS
10
18
20
10.35
11
15.4
21
10.35
0
LINE
8
0
6
CONTINUOUS
10
15.4
20
10.35
11
15.4
21
7.75
0
LINE
8
0
6
CONTINUOUS
10
15.4
20
7.75
11
18
21
7.75
0
LINE
8
0
6
CONTINUOUS
10
18
20
7.75
11
18
21
6.8
0
LINE
8
0
6
CONTINUOUS
10
18
20
6.8
11
22
21
6.8
0
LINE
8
0
6
CONTINUOUS
10
22
20
6.8
11
22
21
8.3
0
ARC
8
0
6
CONTINUOUS
10
22.5
20
8.3
40
0.5
50
90
51
180
0
LINE
8
0
6
CONTINUOUS
10
22.5
20
8.8
11
27
21
8.8
0
LINE
8
0
6
CONTINUOUS
10
27
20
8.8
11
27
21
10
0
LINE
8
0
6
CONTINUOUS
10
27
20
10
11
29.6
21
10
0
LINE
8
0
6
CONTINUOUS
10
29.6
20
10
11
29.6
21
12.55
0
LINE
8
0
6
CONTINUOUS
10
29.6
20
12.55
11
27
21
12.55
0
LINE
8
0
6
CONTINUOUS
10
27
20
12.55
11
27
21
13.5
0
LINE
8
0
6
CONTINUOUS
10
27
20
13.5
11
22.5
21
13.5
0
LINE
8
0
6
CONTINUOUS
10
22.5
20
13.5
11
22.5
21
12.8
0
ENDSEC
0
EOF