0
SECTION
2
HEADER
9
$INSUNITS
70
4
0
ENDSEC
0
SECTION
2
TABLES
0
TABLE
2
LTYPE
0
LTYPE
72
65
70
0
2
CONTINUOUS
3
______
73
0
40
0
0
LTYPE
72
65
70
0
2
DASHED
3
_ _ _ 
73
2
40
7.5
49
5
49
-2.5
0
LTYPE
72
65
70
0
2
DOTTED
3
. . . 
73
2
40
1.5
49
0.5
49
-1
0
ENDTAB
0
TABLE
2
LAYER
0
ENDTAB
0
ENDSEC
0
SECTION
2
ENTITIES
0
ARC
8
0
6
CONTINUOUS
10
-1
20
2.2
40
1.5
50
90
51
180
0
LINE
8
0
6
CONTINUOUS
10
-1
20
3.7
11
2
21
3.7
0
LINE
8
0
6
CONTINUOUS
10
2
20
3.7
11
2
21
4.65
0
LINE
8
0
6
CONTINUOUS
10
2
20
4.65
11
4.6
21
4.65
0
LINE
8
0
6
CONTINUOUS
10
4.6
20
4.65
11
4.6
21
7.25
0
LINE
8
0
6
CONTINUOUS
10
4.6
20
7.25
11
2
21
7.25
0
LINE
8
0
6
CONTINUOUS
10
2
20
7.25
11
2
21
8.2
0
LINE
8
0
6
CONTINUOUS
10
2
20
8.2
11
-2
21
8.2
0
LINE
8
0
6
CONTINUOUS
10
-2
20
8.2
11
-2
21
6.7
0
ARC
8
0
6
CONTINUOUS
10
-2.5
20
6.7
40
0.5
50
270
51
360
0
LINE
8
0
6
CONTINUOUS
10
-2.5
20
6.2
11
-7
21
6.2
0
LINE
8
0
6
CONTINUOUS
10
-7
20
6.2
11
-7
21
5
0
LINE
8
0
6
CONTINUOUS
10
-7
20
5
11
-9.6
21
5
0
LINE
8
0
6
CONTINUOUS
10
-9.6
20
5
11
-9.6
21
2.45
0
LINE
8
0
6
CONTINUOUS
10
-9.6
20
2.45
11
-7
21
2.45
0
LINE
8
0
6
CONTINUOUS
10
-7
20
2.45
11
-7
21
1.5
0
LINE
8
0
6
CONTINUOUS
10
-7
20
1.5
11
-2.5
21
1.5
0
LINE
8
0
6
CONTINUOUS
10
-2.5
20
1.5
11
-2.5
21
2.2
0
ARC
8
0
6
CONTINUOUS
10
-1
20
19.2
40
1.5
50
90
51
180
0
LINE
8
0
6
CONTINUOUS
10
-1
20
20.7
11
2
21
20.7
0
LINE
8
0
6
CONTINUOUS
10
2
20
20.7
11
2
21
21.65
0
LINE
8
0
6
CONTINUOUS
10
2
20
21.65
11
4.6
21
21.65
0
LINE
8
0
6
CONTINUOUS
10
4.6
20
21.65
11
4.6
21
24.25
0
LINE
8
0
6
CONTINUOUS
10
4.6
20
24.25
11
2
21
24.25
0
LINE
8
0
6
CONTINUOUS
10
2
20
24.25
11
2
21
25.2
0
LINE
8
0
6
CONTINUOUS
10
2
20
25.2
11
-2
21
25.2
0
LINE
8
0
6
CONTINUOUS
10
-2
20
25.2
11
-2
21
23.7
0
ARC
8
0
6
CONTINUOUS
10
-2.5
20
23.7
40
0.5
50
270
51
360
0
LINE
8
0
6
CONTINUOUS
10
-2.5
20
23.2
11
-7
21
23.2
0
LINE
8
0
6
CONTINUOUS
10
-7
20
23.2
11
-7
21
22
0
LINE
8
0
6
CONTINUOUS
10
-7
20
22
11
-9.6
21
22
0
LINE
8
0
6
CONTINUOUS
10
-9.6
20
22
11
-9.6
21
19.45
0
LINE
8
0
6
CONTINUOUS
10
-9.6
20
19.45
11
-7
21
19.45
0
LINE
8
0
6
CONTINUOUS
10
-7
20
19.45
11
-7
21
18.5
0
LINE
8
0
6
CONTINUOUS
10
-7
20
18.5
11
-2.5
21
18.5
0
LINE
8
0
6
CONTINUOUS
10
-2.5
20
18.5
11
-2.5
21
19.2
0
ARC
8
0
6
CONTINUOUS
10
18
20
2.2
40
1.5
50
90
51
180
0
LINE
8
0
6
CONTINUOUS
10
18
20
3.7
11
21
21
3.7
0
LINE
8
0
6
CONTINUOUS
10
21
20
3.7
11
21
21
4.65
0
LINE
8
0
6
CONTINUOUS
10
21
20
4.65
11
23.6
21
4.65
0
LINE
8
0
6
CONTINUOUS
10
23.6
20
4.65
11
23.6
21
7.25
0
LINE
8
0
6
CONTINUOUS
10
23.6
20
7.25
11
21
21
7.25
0
LINE
8
0
6
CONTINUOUS
10
21
20
7.25
11
21
21
8.2
0
LINE
8
0
6
CONTINUOUS
10
21
20
8.2
11
17
21
8.2
0
LINE
8
0
6
CONTINUOUS
10
17
20
8.2
11
17
21
6.7
0
ARC
8
0
6
CONTINUOUS
10
16.5
20
6.7
40
0.5
50
270
51
360
0
LINE
8
0
6
CONTINUOUS
10
16.5
20
6.2
11
12
21
6.2
0
LINE
8
0
6
CONTINUOUS
10
12
20
6.2
11
12
21
5
0
LINE
8
0
6
CONTINUOUS
10
12
20
5
11
9.4
21
5
0
LINE
8
0
6
CONTINUOUS
10
9.4
20
5
11
9.4
21
2.45
0
LINE
8
0
6
CONTINUOUS
10
9.4
20
2.45
11
12
21
2.45
0
LINE
8
0
6
CONTINUOUS
10
12
20
2.45
11
12
21
1.5
0
LINE
8
0
6
CONTINUOUS
10
12
20
1.5
11
16.5
21
1.5
0
LINE
8
0
6
CONTINUOUS
10
16.5
20
1.5
11
16.5
21
2.2
0
ARC
8
0
6
CONTINUOUS
10
18
20
19.2
40
1.5
50
90
51
180
0
LINE
8
0
6
CONTINUOUS
10
18
20
20.7
11
21
21
20.7
0
LINE
8
0
6
CONTINUOUS
10
21
20
20.7
11
21
21
21.65
0
LINE
8
0
6
CONTINUOUS
10
21
20
21.65
11
23.6
21
21.65
0
LINE
8
0
6
CONTINUOUS
10
23.6
20
21.65
11
23.6
21
24.25
0
LINE
8
0
6
CONTINUOUS
10
23.6
20
24.25
11
21
21
24.25
0
LINE
8
0
6
CONTINUOUS
10
21
20
24.25
11
21
21
25.2
0
LINE
8
0
6
CONTINUOUS
10
21
20
25.2
11
17
21
25.2
0
LINE
8
0
6
CONTINUOUS
10
17
20
25.2
11
17
21
23.7
0
ARC
8
0
6
CONTINUOUS
10
16.5
20
23.7
40
0.5
50
270
51
360
0
LINE
8
0
6
CONTINUOUS
10
16.5
20
23.2
11
12
21
23.2
0
LINE
8
0
6
CONTINUOUS
10
12
20
23.2
11
12
21
22
0
LINE
8
0
6
CONTINUOUS
10
12
20
22
11
9.4
21
22
0
LINE
8
0
6
CONTINUOUS
10
9.4
20
22
11
9.4
21
19.45
0
LINE
8
0
6
CONTINUOUS
10
9.4
20
19.45
11
12
21
19.45
0
LINE
8
0
6
CONTINUOUS
10
12
20
19.45
11
12
21
18.5
0
LINE
8
0
6
CONTINUOUS
10
12
20
18.5
11
16.5
21
18.5
0
LINE
8
0
6
CONTINUOUS
10
16.5
20
18.5
11
16.5
21
19.2
0
ENDSEC
0
EOF