M48
; DRILL file {KiCad (6.0.7-1)-1} date Sunday, October 23, 2022 at 01:43:09 PM
; FORMAT={-:-/ absolute / inch / decimal}
; #@! TF.CreationDate,2022-10-23T13:43:09-07:00
; #@! TF.GenerationSoftware,Kicad,Pcbnew,(6.0.7-1)-1
; #@! TF.FileFunction,NonPlated,1,2,NPTH
FMAT,2
INCH
; #@! TA.AperFunction,NonPlated,NPTH,ComponentDrill
T1C0.0354
; #@! TA.AperFunction,NonPlated,NPTH,ComponentDrill
T2C0.0670
; #@! TA.AperFunction,NonPlated,NPTH,ComponentDrill
T3C0.1181
; #@! TA.AperFunction,NonPlated,NPTH,ComponentDrill
T4C0.1350
%
G90
G05
T1
X4.2126Y1.6075
X4.2126Y1.6075
X4.3307Y1.6075
X4.3307Y1.6075
T2
X0.4921Y1.3386
X0.4921Y1.3386
X0.4921Y0.6693
X0.4921Y0.6693
X0.4921Y0.0
X0.4921Y0.0
X0.9252Y1.3386
X0.9252Y1.3386
X0.9252Y0.6693
X0.9252Y0.6693
X0.9252Y0.0
X0.9252Y0.0
X1.2008Y1.3386
X1.2008Y1.3386
X1.2008Y0.6693
X1.2008Y0.6693
X1.2008Y0.0
X1.2008Y0.0
X1.6339Y1.3386
X1.6339Y1.3386
X1.6339Y0.6693
X1.6339Y0.6693
X1.6339Y0.0
X1.6339Y0.0
X1.9094Y1.3386
X1.9094Y1.3386
X1.9094Y0.6693
X1.9094Y0.6693
X1.9094Y0.0
X1.9094Y0.0
X2.3425Y1.3386
X2.3425Y1.3386
X2.3425Y0.6693
X2.3425Y0.6693
X2.3425Y0.0
X2.3425Y0.0
X2.6181Y1.3386
X2.6181Y1.3386
X2.6181Y0.6693
X2.6181Y0.6693
X2.6181Y0.0
X2.6181Y0.0
X3.0512Y1.3386
X3.0512Y1.3386
X3.0512Y0.6693
X3.0512Y0.6693
X3.0512Y0.0
X3.0512Y0.0
X3.3268Y1.3386
X3.3268Y1.3386
X3.3268Y0.6693
X3.3268Y0.6693
X3.3268Y0.0
X3.3268Y0.0
X3.7598Y1.3386
X3.7598Y1.3386
X3.7598Y0.6693
X3.7598Y0.6693
X3.7598Y0.0
X3.7598Y0.0
X4.0354Y0.0
X4.0354Y0.0
X4.4685Y0.0
X4.4685Y0.0
T3
X0.5118Y1.4862
X0.5118Y0.8169
X0.5118Y0.1476
X0.7087Y1.5728
X0.7087Y1.5728
X0.7087Y0.9035
X0.7087Y0.9035
X0.7087Y0.2343
X0.7087Y0.2343
X0.9055Y1.4862
X0.9055Y0.8169
X0.9055Y0.1476
X1.2205Y1.4862
X1.2205Y0.8169
X1.2205Y0.1476
X1.4173Y1.5728
X1.4173Y1.5728
X1.4173Y0.9035
X1.4173Y0.9035
X1.4173Y0.2343
X1.4173Y0.2343
X1.6142Y1.4862
X1.6142Y0.8169
X1.6142Y0.1476
X1.9291Y1.4862
X1.9291Y0.8169
X1.9291Y0.1476
X2.126Y1.5728
X2.126Y1.5728
X2.126Y0.9035
X2.126Y0.9035
X2.126Y0.2343
X2.126Y0.2343
X2.3228Y1.4862
X2.3228Y0.8169
X2.3228Y0.1476
X2.6378Y1.4862
X2.6378Y0.8169
X2.6378Y0.1476
X2.8346Y1.5728
X2.8346Y1.5728
X2.8346Y0.9035
X2.8346Y0.9035
X2.8346Y0.2343
X2.8346Y0.2343
X3.0315Y1.4862
X3.0315Y0.8169
X3.0315Y0.1476
X3.3465Y1.4862
X3.3465Y0.8169
X3.3465Y0.1476
X3.5433Y1.5728
X3.5433Y1.5728
X3.5433Y0.9035
X3.5433Y0.9035
X3.5433Y0.2343
X3.5433Y0.2343
X3.7402Y1.4862
X3.7402Y0.8169
X3.7402Y0.1476
X4.0551Y0.1476
X4.252Y0.2343
X4.252Y0.2343
X4.4488Y0.1476
T4
X0.7087Y1.3386
X0.7087Y1.3386
X0.7087Y0.6693
X0.7087Y0.6693
X0.7087Y0.0
X0.7087Y0.0
X1.4173Y1.3386
X1.4173Y1.3386
X1.4173Y0.6693
X1.4173Y0.6693
X1.4173Y0.0
X1.4173Y0.0
X2.126Y1.3386
X2.126Y1.3386
X2.126Y0.6693
X2.126Y0.6693
X2.126Y0.0
X2.126Y0.0
X2.8346Y1.3386
X2.8346Y1.3386
X2.8346Y0.6693
X2.8346Y0.6693
X2.8346Y0.0
X2.8346Y0.0
X3.5433Y1.3386
X3.5433Y1.3386
X3.5433Y0.6693
X3.5433Y0.6693
X3.5433Y0.0
X3.5433Y0.0
X4.252Y0.0
X4.252Y0.0
T0
M30
