%TF.GenerationSoftware,KiCad,Pcbnew,(6.0.7-1)-1*%
%TF.CreationDate,2022-10-23T13:43:15-07:00*%
%TF.ProjectId,card,63617264-2e6b-4696-9361-645f70636258,v1.0.0*%
%TF.SameCoordinates,Original*%
%TF.FileFunction,Soldermask,Bot*%
%TF.FilePolarity,Negative*%
%FSLAX46Y46*%
G04 Gerber Fmt 4.6, Leading zero omitted, Abs format (unit mm)*
G04 Created by KiCad (PCBNEW (6.0.7-1)-1) date 2022-10-23 13:43:15*
%MOMM*%
%LPD*%
G01*
G04 APERTURE LIST*
G04 Aperture macros list*
%AMRoundRect*
0 Rectangle with rounded corners*
0 $1 Rounding radius*
0 $2 $3 $4 $5 $6 $7 $8 $9 X,Y pos of 4 corners*
0 Add a 4 corners polygon primitive as box body*
4,1,4,$2,$3,$4,$5,$6,$7,$8,$9,$2,$3,0*
0 Add four circle primitives for the rounded corners*
1,1,$1+$1,$2,$3*
1,1,$1+$1,$4,$5*
1,1,$1+$1,$6,$7*
1,1,$1+$1,$8,$9*
0 Add four rect primitives between the rounded corners*
20,1,$1+$1,$2,$3,$4,$5,0*
20,1,$1+$1,$4,$5,$6,$7,0*
20,1,$1+$1,$6,$7,$8,$9,0*
20,1,$1+$1,$8,$9,$2,$3,0*%
G04 Aperture macros list end*
%ADD10C,1.100000*%
%ADD11RoundRect,0.050000X-0.500000X-0.400000X0.500000X-0.400000X0.500000X0.400000X-0.500000X0.400000X0*%
%ADD12C,1.000000*%
%ADD13RoundRect,0.050000X-0.350000X-0.750000X0.350000X-0.750000X0.350000X0.750000X-0.350000X0.750000X0*%
%ADD14C,1.801800*%
%ADD15C,3.529000*%
%ADD16C,2.132000*%
%ADD17C,3.100000*%
%ADD18RoundRect,0.050000X-1.300000X-1.300000X1.300000X-1.300000X1.300000X1.300000X-1.300000X1.300000X0*%
%ADD19RoundRect,0.050000X-0.450000X-0.850000X0.450000X-0.850000X0.450000X0.850000X-0.450000X0.850000X0*%
%ADD20RoundRect,0.050000X-0.876300X0.876300X-0.876300X-0.876300X0.876300X-0.876300X0.876300X0.876300X0*%
%ADD21C,1.852600*%
G04 APERTURE END LIST*
D10*
%TO.C,*%
X107450000Y9000000D03*
X108950000Y9000000D03*
%TD*%
D11*
%TO.C,*%
X112150000Y39720000D03*
D12*
X110000000Y40830000D03*
D11*
X104850000Y39720000D03*
D12*
X107000000Y40830000D03*
D11*
X112150000Y41930000D03*
X104850000Y41930000D03*
D12*
X110000000Y40830000D03*
X107000000Y40830000D03*
D13*
X106250000Y39070000D03*
X109250000Y39070000D03*
X110750000Y39070000D03*
%TD*%
D14*
%TO.C,S24*%
X77500000Y34000000D03*
X66500000Y34000000D03*
D15*
X72000000Y34000000D03*
D16*
X77000000Y30200000D03*
X67000000Y30200000D03*
X72000000Y28100000D03*
X72000000Y28100000D03*
%TD*%
D17*
%TO.C,S31*%
X113000000Y3750000D03*
D15*
X108000000Y0D03*
D17*
X108000000Y5950000D03*
X103000000Y3750000D03*
D14*
X102500000Y0D03*
D17*
X108000000Y5950000D03*
D14*
X113500000Y0D03*
D18*
X104725000Y5950000D03*
X116275000Y3750000D03*
%TD*%
D14*
%TO.C,S18*%
X48500000Y34000000D03*
D15*
X54000000Y34000000D03*
D14*
X59500000Y34000000D03*
D16*
X49000000Y30200000D03*
X59000000Y30200000D03*
X54000000Y28100000D03*
X54000000Y28100000D03*
%TD*%
D14*
%TO.C,S6*%
X23500000Y34000000D03*
D15*
X18000000Y34000000D03*
D14*
X12500000Y34000000D03*
D16*
X13000000Y30200000D03*
X23000000Y30200000D03*
X18000000Y28100000D03*
X18000000Y28100000D03*
%TD*%
D17*
%TO.C,S15*%
X49000000Y20750000D03*
D14*
X59500000Y17000000D03*
D17*
X54000000Y22950000D03*
D15*
X54000000Y17000000D03*
D17*
X59000000Y20750000D03*
X54000000Y22950000D03*
D14*
X48500000Y17000000D03*
D18*
X50725000Y22950000D03*
X62275000Y20750000D03*
%TD*%
D14*
%TO.C,S28*%
X84500000Y17000000D03*
D15*
X90000000Y17000000D03*
D14*
X95500000Y17000000D03*
D16*
X95000000Y13200000D03*
X85000000Y13200000D03*
X90000000Y11100000D03*
X90000000Y11100000D03*
%TD*%
D14*
%TO.C,S8*%
X30500000Y0D03*
X41500000Y0D03*
D15*
X36000000Y0D03*
D16*
X31000000Y-3800000D03*
X41000000Y-3800000D03*
X36000000Y-5900000D03*
X36000000Y-5900000D03*
%TD*%
D15*
%TO.C,S19*%
X72000000Y0D03*
D14*
X66500000Y0D03*
D17*
X72000000Y5950000D03*
X77000000Y3750000D03*
X72000000Y5950000D03*
D14*
X77500000Y0D03*
D17*
X67000000Y3750000D03*
D18*
X68725000Y5950000D03*
X80275000Y3750000D03*
%TD*%
D14*
%TO.C,S11*%
X41500000Y34000000D03*
X30500000Y34000000D03*
D17*
X31000000Y37750000D03*
X36000000Y39950000D03*
X36000000Y39950000D03*
X41000000Y37750000D03*
D15*
X36000000Y34000000D03*
D18*
X32725000Y39950000D03*
X44275000Y37750000D03*
%TD*%
D14*
%TO.C,S7*%
X30500000Y0D03*
D15*
X36000000Y0D03*
D17*
X36000000Y5950000D03*
X41000000Y3750000D03*
X36000000Y5950000D03*
D14*
X41500000Y0D03*
D17*
X31000000Y3750000D03*
D18*
X32725000Y5950000D03*
X44275000Y3750000D03*
%TD*%
D15*
%TO.C,S22*%
X72000000Y17000000D03*
D14*
X66500000Y17000000D03*
X77500000Y17000000D03*
D16*
X67000000Y13200000D03*
X77000000Y13200000D03*
X72000000Y11100000D03*
X72000000Y11100000D03*
%TD*%
D17*
%TO.C,S27*%
X85000000Y20750000D03*
D15*
X90000000Y17000000D03*
D14*
X84500000Y17000000D03*
D17*
X90000000Y22950000D03*
D14*
X95500000Y17000000D03*
D17*
X90000000Y22950000D03*
X95000000Y20750000D03*
D18*
X86725000Y22950000D03*
X98275000Y20750000D03*
%TD*%
D17*
%TO.C,S9*%
X36000000Y22950000D03*
X41000000Y20750000D03*
D14*
X30500000Y17000000D03*
X41500000Y17000000D03*
D17*
X36000000Y22950000D03*
D15*
X36000000Y17000000D03*
D17*
X31000000Y20750000D03*
D18*
X32725000Y22950000D03*
X44275000Y20750000D03*
%TD*%
D14*
%TO.C,S12*%
X41500000Y34000000D03*
D15*
X36000000Y34000000D03*
D14*
X30500000Y34000000D03*
D16*
X41000000Y30200000D03*
X31000000Y30200000D03*
X36000000Y28100000D03*
X36000000Y28100000D03*
%TD*%
D19*
%TO.C,*%
X106800000Y33000000D03*
X110200000Y33000000D03*
%TD*%
D17*
%TO.C,S17*%
X54000000Y39950000D03*
D15*
X54000000Y34000000D03*
D17*
X54000000Y39950000D03*
D14*
X59500000Y34000000D03*
D17*
X49000000Y37750000D03*
D14*
X48500000Y34000000D03*
D17*
X59000000Y37750000D03*
D18*
X50725000Y39950000D03*
X62275000Y37750000D03*
%TD*%
D15*
%TO.C,S21*%
X72000000Y17000000D03*
D17*
X77000000Y20750000D03*
D14*
X77500000Y17000000D03*
D17*
X67000000Y20750000D03*
D14*
X66500000Y17000000D03*
D17*
X72000000Y22950000D03*
X72000000Y22950000D03*
D18*
X68725000Y22950000D03*
X80275000Y20750000D03*
%TD*%
D14*
%TO.C,S25*%
X84500000Y0D03*
D17*
X85000000Y3750000D03*
D14*
X95500000Y0D03*
D17*
X95000000Y3750000D03*
D15*
X90000000Y0D03*
D17*
X90000000Y5950000D03*
X90000000Y5950000D03*
D18*
X86725000Y5950000D03*
X98275000Y3750000D03*
%TD*%
D14*
%TO.C,S26*%
X95500000Y0D03*
X84500000Y0D03*
D15*
X90000000Y0D03*
D16*
X85000000Y-3800000D03*
X95000000Y-3800000D03*
X90000000Y-5900000D03*
X90000000Y-5900000D03*
%TD*%
D17*
%TO.C,S3*%
X23000000Y20750000D03*
X18000000Y22950000D03*
X13000000Y20750000D03*
D14*
X23500000Y17000000D03*
D15*
X18000000Y17000000D03*
D17*
X18000000Y22950000D03*
D14*
X12500000Y17000000D03*
D18*
X14725000Y22950000D03*
X26275000Y20750000D03*
%TD*%
D17*
%TO.C,S5*%
X18000000Y39950000D03*
D14*
X23500000Y34000000D03*
X12500000Y34000000D03*
D17*
X13000000Y37750000D03*
X18000000Y39950000D03*
D15*
X18000000Y34000000D03*
D17*
X23000000Y37750000D03*
D18*
X14725000Y39950000D03*
X26275000Y37750000D03*
%TD*%
D14*
%TO.C,S2*%
X12500000Y0D03*
D15*
X18000000Y0D03*
D14*
X23500000Y0D03*
D16*
X23000000Y-3800000D03*
X13000000Y-3800000D03*
X18000000Y-5900000D03*
X18000000Y-5900000D03*
%TD*%
D15*
%TO.C,S16*%
X54000000Y17000000D03*
D14*
X48500000Y17000000D03*
X59500000Y17000000D03*
D16*
X49000000Y13200000D03*
X59000000Y13200000D03*
X54000000Y11100000D03*
X54000000Y11100000D03*
%TD*%
D14*
%TO.C,S30*%
X95500000Y34000000D03*
X84500000Y34000000D03*
D15*
X90000000Y34000000D03*
D16*
X85000000Y30200000D03*
X95000000Y30200000D03*
X90000000Y28100000D03*
X90000000Y28100000D03*
%TD*%
D15*
%TO.C,S14*%
X54000000Y0D03*
D14*
X48500000Y0D03*
X59500000Y0D03*
D16*
X59000000Y-3800000D03*
X49000000Y-3800000D03*
X54000000Y-5900000D03*
X54000000Y-5900000D03*
%TD*%
D14*
%TO.C,S4*%
X12500000Y17000000D03*
X23500000Y17000000D03*
D15*
X18000000Y17000000D03*
D16*
X23000000Y13200000D03*
X13000000Y13200000D03*
X18000000Y11100000D03*
X18000000Y11100000D03*
%TD*%
D14*
%TO.C,S32*%
X102500000Y0D03*
D15*
X108000000Y0D03*
D14*
X113500000Y0D03*
D16*
X103000000Y-3800000D03*
X113000000Y-3800000D03*
X108000000Y-5900000D03*
X108000000Y-5900000D03*
%TD*%
D14*
%TO.C,S29*%
X84500000Y34000000D03*
D17*
X95000000Y37750000D03*
X90000000Y39950000D03*
X85000000Y37750000D03*
X90000000Y39950000D03*
D15*
X90000000Y34000000D03*
D14*
X95500000Y34000000D03*
D18*
X86725000Y39950000D03*
X98275000Y37750000D03*
%TD*%
D14*
%TO.C,S13*%
X48500000Y0D03*
D15*
X54000000Y0D03*
D17*
X54000000Y5950000D03*
D14*
X59500000Y0D03*
D17*
X59000000Y3750000D03*
X49000000Y3750000D03*
X54000000Y5950000D03*
D18*
X50725000Y5950000D03*
X62275000Y3750000D03*
%TD*%
D17*
%TO.C,S23*%
X72000000Y39950000D03*
X77000000Y37750000D03*
X72000000Y39950000D03*
X67000000Y37750000D03*
D14*
X66500000Y34000000D03*
D15*
X72000000Y34000000D03*
D14*
X77500000Y34000000D03*
D18*
X68725000Y39950000D03*
X80275000Y37750000D03*
%TD*%
D14*
%TO.C,S20*%
X77500000Y0D03*
X66500000Y0D03*
D15*
X72000000Y0D03*
D16*
X77000000Y-3800000D03*
X67000000Y-3800000D03*
X72000000Y-5900000D03*
X72000000Y-5900000D03*
%TD*%
D20*
%TO.C,MCU1*%
X100980000Y38270000D03*
D21*
X100980000Y35730000D03*
X100980000Y33190000D03*
X100980000Y30650000D03*
X100980000Y28110000D03*
X100980000Y25570000D03*
X100980000Y23030000D03*
X100980000Y20490000D03*
X100980000Y17950000D03*
X100980000Y15410000D03*
X100980000Y12870000D03*
X100980000Y10330000D03*
X116220000Y38270000D03*
X116220000Y35730000D03*
X116220000Y33190000D03*
X116220000Y30650000D03*
X116220000Y28110000D03*
X116220000Y25570000D03*
X116220000Y23030000D03*
X116220000Y20490000D03*
X116220000Y17950000D03*
X116220000Y15410000D03*
X116220000Y12870000D03*
X116220000Y10330000D03*
%TD*%
D14*
%TO.C,S10*%
X41500000Y17000000D03*
X30500000Y17000000D03*
D15*
X36000000Y17000000D03*
D16*
X41000000Y13200000D03*
X31000000Y13200000D03*
X36000000Y11100000D03*
X36000000Y11100000D03*
%TD*%
D17*
%TO.C,S1*%
X18000000Y5950000D03*
D14*
X12500000Y0D03*
D17*
X23000000Y3750000D03*
X18000000Y5950000D03*
X13000000Y3750000D03*
D15*
X18000000Y0D03*
D14*
X23500000Y0D03*
D18*
X14725000Y5950000D03*
X26275000Y3750000D03*
%TD*%
M02*
