%TF.GenerationSoftware,KiCad,Pcbnew,(6.0.7-1)-1*%
%TF.CreationDate,2022-10-23T13:43:15-07:00*%
%TF.ProjectId,card,63617264-2e6b-4696-9361-645f70636258,v1.0.0*%
%TF.SameCoordinates,Original*%
%TF.FileFunction,Paste,Top*%
%TF.FilePolarity,Positive*%
%FSLAX46Y46*%
G04 Gerber Fmt 4.6, Leading zero omitted, Abs format (unit mm)*
G04 Created by KiCad (PCBNEW (6.0.7-1)-1) date 2022-10-23 13:43:15*
%MOMM*%
%LPD*%
G01*
G04 APERTURE LIST*
%ADD10R,1.000000X0.800000*%
%ADD11R,0.700000X1.500000*%
%ADD12R,2.600000X2.600000*%
%ADD13R,0.900000X1.700000*%
G04 APERTURE END LIST*
D10*
%TO.C,*%
X112150000Y41930000D03*
X112150000Y39720000D03*
X104850000Y39720000D03*
X104850000Y41930000D03*
D11*
X110750000Y39070000D03*
X107750000Y39070000D03*
X106250000Y39070000D03*
%TD*%
D12*
%TO.C,S31*%
X111275000Y5950000D03*
X99725000Y3750000D03*
%TD*%
%TO.C,S15*%
X57275000Y22950000D03*
X45725000Y20750000D03*
%TD*%
%TO.C,S19*%
X75275000Y5950000D03*
X63725000Y3750000D03*
%TD*%
%TO.C,S11*%
X39275000Y39950000D03*
X27725000Y37750000D03*
%TD*%
%TO.C,S7*%
X39275000Y5950000D03*
X27725000Y3750000D03*
%TD*%
%TO.C,S27*%
X93275000Y22950000D03*
X81725000Y20750000D03*
%TD*%
%TO.C,S9*%
X39275000Y22950000D03*
X27725000Y20750000D03*
%TD*%
D13*
%TO.C,*%
X110200000Y33000000D03*
X106800000Y33000000D03*
%TD*%
D12*
%TO.C,S17*%
X57275000Y39950000D03*
X45725000Y37750000D03*
%TD*%
%TO.C,S21*%
X75275000Y22950000D03*
X63725000Y20750000D03*
%TD*%
%TO.C,S25*%
X93275000Y5950000D03*
X81725000Y3750000D03*
%TD*%
%TO.C,S3*%
X21275000Y22950000D03*
X9725000Y20750000D03*
%TD*%
%TO.C,S5*%
X21275000Y39950000D03*
X9725000Y37750000D03*
%TD*%
%TO.C,S29*%
X93275000Y39950000D03*
X81725000Y37750000D03*
%TD*%
%TO.C,S13*%
X57275000Y5950000D03*
X45725000Y3750000D03*
%TD*%
%TO.C,S23*%
X75275000Y39950000D03*
X63725000Y37750000D03*
%TD*%
%TO.C,S1*%
X21275000Y5950000D03*
X9725000Y3750000D03*
%TD*%
M02*
