%TF.GenerationSoftware,KiCad,Pcbnew,(6.0.7-1)-1*%
%TF.CreationDate,2022-10-23T13:43:15-07:00*%
%TF.ProjectId,card,63617264-2e6b-4696-9361-645f70636258,v1.0.0*%
%TF.SameCoordinates,Original*%
%TF.FileFunction,Legend,Top*%
%TF.FilePolarity,Positive*%
%FSLAX46Y46*%
G04 Gerber Fmt 4.6, Leading zero omitted, Abs format (unit mm)*
G04 Created by KiCad (PCBNEW (6.0.7-1)-1) date 2022-10-23 13:43:15*
%MOMM*%
%LPD*%
G01*
G04 APERTURE LIST*
%ADD10C,0.150000*%
%ADD11C,1.000000*%
%ADD12R,1.752600X1.752600*%
%ADD13C,1.752600*%
G04 APERTURE END LIST*
D10*
%TO.C,*%
%TO.C,MCU1*%
X112790476Y33590000D02*
X112714285Y33628095D01*
X112600000Y33628095D01*
X112485714Y33590000D01*
X112409523Y33513809D01*
X112371428Y33437619D01*
X112333333Y33285238D01*
X112333333Y33170952D01*
X112371428Y33018571D01*
X112409523Y32942380D01*
X112485714Y32866190D01*
X112600000Y32828095D01*
X112676190Y32828095D01*
X112790476Y32866190D01*
X112828571Y32904285D01*
X112828571Y33170952D01*
X112676190Y33170952D01*
X113171428Y32828095D02*
X113171428Y33628095D01*
X113628571Y32828095D01*
X113628571Y33628095D01*
X114009523Y32828095D02*
X114009523Y33628095D01*
X114200000Y33628095D01*
X114314285Y33590000D01*
X114390476Y33513809D01*
X114428571Y33437619D01*
X114466666Y33285238D01*
X114466666Y33170952D01*
X114428571Y33018571D01*
X114390476Y32942380D01*
X114314285Y32866190D01*
X114200000Y32828095D01*
X114009523Y32828095D01*
X102828571Y17588095D02*
X102828571Y18388095D01*
X103133333Y18388095D01*
X103209523Y18350000D01*
X103247619Y18311904D01*
X103285714Y18235714D01*
X103285714Y18121428D01*
X103247619Y18045238D01*
X103209523Y18007142D01*
X103133333Y17969047D01*
X102828571Y17969047D01*
X104047619Y17588095D02*
X103590476Y17588095D01*
X103819047Y17588095D02*
X103819047Y18388095D01*
X103742857Y18273809D01*
X103666666Y18197619D01*
X103590476Y18159523D01*
X104771428Y18388095D02*
X104390476Y18388095D01*
X104352380Y18007142D01*
X104390476Y18045238D01*
X104466666Y18083333D01*
X104657142Y18083333D01*
X104733333Y18045238D01*
X104771428Y18007142D01*
X104809523Y17930952D01*
X104809523Y17740476D01*
X104771428Y17664285D01*
X104733333Y17626190D01*
X104657142Y17588095D01*
X104466666Y17588095D01*
X104390476Y17626190D01*
X104352380Y17664285D01*
X103361904Y32828095D02*
X103095238Y33209047D01*
X102904761Y32828095D02*
X102904761Y33628095D01*
X103209523Y33628095D01*
X103285714Y33590000D01*
X103323809Y33551904D01*
X103361904Y33475714D01*
X103361904Y33361428D01*
X103323809Y33285238D01*
X103285714Y33247142D01*
X103209523Y33209047D01*
X102904761Y33209047D01*
X103666666Y32866190D02*
X103780952Y32828095D01*
X103971428Y32828095D01*
X104047619Y32866190D01*
X104085714Y32904285D01*
X104123809Y32980476D01*
X104123809Y33056666D01*
X104085714Y33132857D01*
X104047619Y33170952D01*
X103971428Y33209047D01*
X103819047Y33247142D01*
X103742857Y33285238D01*
X103704761Y33323333D01*
X103666666Y33399523D01*
X103666666Y33475714D01*
X103704761Y33551904D01*
X103742857Y33590000D01*
X103819047Y33628095D01*
X104009523Y33628095D01*
X104123809Y33590000D01*
X104352380Y33628095D02*
X104809523Y33628095D01*
X104580952Y32828095D02*
X104580952Y33628095D01*
X102828571Y22668095D02*
X102828571Y23468095D01*
X103133333Y23468095D01*
X103209523Y23430000D01*
X103247619Y23391904D01*
X103285714Y23315714D01*
X103285714Y23201428D01*
X103247619Y23125238D01*
X103209523Y23087142D01*
X103133333Y23049047D01*
X102828571Y23049047D01*
X104047619Y22668095D02*
X103590476Y22668095D01*
X103819047Y22668095D02*
X103819047Y23468095D01*
X103742857Y23353809D01*
X103666666Y23277619D01*
X103590476Y23239523D01*
X104428571Y22668095D02*
X104580952Y22668095D01*
X104657142Y22706190D01*
X104695238Y22744285D01*
X104771428Y22858571D01*
X104809523Y23010952D01*
X104809523Y23315714D01*
X104771428Y23391904D01*
X104733333Y23430000D01*
X104657142Y23468095D01*
X104504761Y23468095D01*
X104428571Y23430000D01*
X104390476Y23391904D01*
X104352380Y23315714D01*
X104352380Y23125238D01*
X104390476Y23049047D01*
X104428571Y23010952D01*
X104504761Y22972857D01*
X104657142Y22972857D01*
X104733333Y23010952D01*
X104771428Y23049047D01*
X104809523Y23125238D01*
X112428571Y27748095D02*
X112428571Y28548095D01*
X112733333Y28548095D01*
X112809523Y28510000D01*
X112847619Y28471904D01*
X112885714Y28395714D01*
X112885714Y28281428D01*
X112847619Y28205238D01*
X112809523Y28167142D01*
X112733333Y28129047D01*
X112428571Y28129047D01*
X113380952Y28548095D02*
X113457142Y28548095D01*
X113533333Y28510000D01*
X113571428Y28471904D01*
X113609523Y28395714D01*
X113647619Y28243333D01*
X113647619Y28052857D01*
X113609523Y27900476D01*
X113571428Y27824285D01*
X113533333Y27786190D01*
X113457142Y27748095D01*
X113380952Y27748095D01*
X113304761Y27786190D01*
X113266666Y27824285D01*
X113228571Y27900476D01*
X113190476Y28052857D01*
X113190476Y28243333D01*
X113228571Y28395714D01*
X113266666Y28471904D01*
X113304761Y28510000D01*
X113380952Y28548095D01*
X113952380Y28471904D02*
X113990476Y28510000D01*
X114066666Y28548095D01*
X114257142Y28548095D01*
X114333333Y28510000D01*
X114371428Y28471904D01*
X114409523Y28395714D01*
X114409523Y28319523D01*
X114371428Y28205238D01*
X113914285Y27748095D01*
X114409523Y27748095D01*
X112428571Y9968095D02*
X112428571Y10768095D01*
X112733333Y10768095D01*
X112809523Y10730000D01*
X112847619Y10691904D01*
X112885714Y10615714D01*
X112885714Y10501428D01*
X112847619Y10425238D01*
X112809523Y10387142D01*
X112733333Y10349047D01*
X112428571Y10349047D01*
X113380952Y10768095D02*
X113457142Y10768095D01*
X113533333Y10730000D01*
X113571428Y10691904D01*
X113609523Y10615714D01*
X113647619Y10463333D01*
X113647619Y10272857D01*
X113609523Y10120476D01*
X113571428Y10044285D01*
X113533333Y10006190D01*
X113457142Y9968095D01*
X113380952Y9968095D01*
X113304761Y10006190D01*
X113266666Y10044285D01*
X113228571Y10120476D01*
X113190476Y10272857D01*
X113190476Y10463333D01*
X113228571Y10615714D01*
X113266666Y10691904D01*
X113304761Y10730000D01*
X113380952Y10768095D01*
X114028571Y9968095D02*
X114180952Y9968095D01*
X114257142Y10006190D01*
X114295238Y10044285D01*
X114371428Y10158571D01*
X114409523Y10310952D01*
X114409523Y10615714D01*
X114371428Y10691904D01*
X114333333Y10730000D01*
X114257142Y10768095D01*
X114104761Y10768095D01*
X114028571Y10730000D01*
X113990476Y10691904D01*
X113952380Y10615714D01*
X113952380Y10425238D01*
X113990476Y10349047D01*
X114028571Y10310952D01*
X114104761Y10272857D01*
X114257142Y10272857D01*
X114333333Y10310952D01*
X114371428Y10349047D01*
X114409523Y10425238D01*
X102828571Y27748095D02*
X102828571Y28548095D01*
X103133333Y28548095D01*
X103209523Y28510000D01*
X103247619Y28471904D01*
X103285714Y28395714D01*
X103285714Y28281428D01*
X103247619Y28205238D01*
X103209523Y28167142D01*
X103133333Y28129047D01*
X102828571Y28129047D01*
X103590476Y28471904D02*
X103628571Y28510000D01*
X103704761Y28548095D01*
X103895238Y28548095D01*
X103971428Y28510000D01*
X104009523Y28471904D01*
X104047619Y28395714D01*
X104047619Y28319523D01*
X104009523Y28205238D01*
X103552380Y27748095D01*
X104047619Y27748095D01*
X104809523Y27748095D02*
X104352380Y27748095D01*
X104580952Y27748095D02*
X104580952Y28548095D01*
X104504761Y28433809D01*
X104428571Y28357619D01*
X104352380Y28319523D01*
X102733333Y31088095D02*
X103000000Y30288095D01*
X103266666Y31088095D01*
X103990476Y30364285D02*
X103952380Y30326190D01*
X103838095Y30288095D01*
X103761904Y30288095D01*
X103647619Y30326190D01*
X103571428Y30402380D01*
X103533333Y30478571D01*
X103495238Y30630952D01*
X103495238Y30745238D01*
X103533333Y30897619D01*
X103571428Y30973809D01*
X103647619Y31050000D01*
X103761904Y31088095D01*
X103838095Y31088095D01*
X103952380Y31050000D01*
X103990476Y31011904D01*
X104790476Y30364285D02*
X104752380Y30326190D01*
X104638095Y30288095D01*
X104561904Y30288095D01*
X104447619Y30326190D01*
X104371428Y30402380D01*
X104333333Y30478571D01*
X104295238Y30630952D01*
X104295238Y30745238D01*
X104333333Y30897619D01*
X104371428Y30973809D01*
X104447619Y31050000D01*
X104561904Y31088095D01*
X104638095Y31088095D01*
X104752380Y31050000D01*
X104790476Y31011904D01*
X102828571Y9968095D02*
X102828571Y10768095D01*
X103133333Y10768095D01*
X103209523Y10730000D01*
X103247619Y10691904D01*
X103285714Y10615714D01*
X103285714Y10501428D01*
X103247619Y10425238D01*
X103209523Y10387142D01*
X103133333Y10349047D01*
X102828571Y10349047D01*
X104047619Y9968095D02*
X103590476Y9968095D01*
X103819047Y9968095D02*
X103819047Y10768095D01*
X103742857Y10653809D01*
X103666666Y10577619D01*
X103590476Y10539523D01*
X104542857Y10768095D02*
X104619047Y10768095D01*
X104695238Y10730000D01*
X104733333Y10691904D01*
X104771428Y10615714D01*
X104809523Y10463333D01*
X104809523Y10272857D01*
X104771428Y10120476D01*
X104733333Y10044285D01*
X104695238Y10006190D01*
X104619047Y9968095D01*
X104542857Y9968095D01*
X104466666Y10006190D01*
X104428571Y10044285D01*
X104390476Y10120476D01*
X104352380Y10272857D01*
X104352380Y10463333D01*
X104390476Y10615714D01*
X104428571Y10691904D01*
X104466666Y10730000D01*
X104542857Y10768095D01*
X112428571Y35368095D02*
X112428571Y36168095D01*
X112733333Y36168095D01*
X112809523Y36130000D01*
X112847619Y36091904D01*
X112885714Y36015714D01*
X112885714Y35901428D01*
X112847619Y35825238D01*
X112809523Y35787142D01*
X112733333Y35749047D01*
X112428571Y35749047D01*
X113380952Y36168095D02*
X113457142Y36168095D01*
X113533333Y36130000D01*
X113571428Y36091904D01*
X113609523Y36015714D01*
X113647619Y35863333D01*
X113647619Y35672857D01*
X113609523Y35520476D01*
X113571428Y35444285D01*
X113533333Y35406190D01*
X113457142Y35368095D01*
X113380952Y35368095D01*
X113304761Y35406190D01*
X113266666Y35444285D01*
X113228571Y35520476D01*
X113190476Y35672857D01*
X113190476Y35863333D01*
X113228571Y36015714D01*
X113266666Y36091904D01*
X113304761Y36130000D01*
X113380952Y36168095D01*
X114142857Y36168095D02*
X114219047Y36168095D01*
X114295238Y36130000D01*
X114333333Y36091904D01*
X114371428Y36015714D01*
X114409523Y35863333D01*
X114409523Y35672857D01*
X114371428Y35520476D01*
X114333333Y35444285D01*
X114295238Y35406190D01*
X114219047Y35368095D01*
X114142857Y35368095D01*
X114066666Y35406190D01*
X114028571Y35444285D01*
X113990476Y35520476D01*
X113952380Y35672857D01*
X113952380Y35863333D01*
X113990476Y36015714D01*
X114028571Y36091904D01*
X114066666Y36130000D01*
X114142857Y36168095D01*
X103247619Y37908095D02*
X102980952Y38289047D01*
X102790476Y37908095D02*
X102790476Y38708095D01*
X103095238Y38708095D01*
X103171428Y38670000D01*
X103209523Y38631904D01*
X103247619Y38555714D01*
X103247619Y38441428D01*
X103209523Y38365238D01*
X103171428Y38327142D01*
X103095238Y38289047D01*
X102790476Y38289047D01*
X103552380Y38136666D02*
X103933333Y38136666D01*
X103476190Y37908095D02*
X103742857Y38708095D01*
X104009523Y37908095D01*
X104200000Y38708095D02*
X104390476Y37908095D01*
X104542857Y38479523D01*
X104695238Y37908095D01*
X104885714Y38708095D01*
X103190476Y36130000D02*
X103114285Y36168095D01*
X103000000Y36168095D01*
X102885714Y36130000D01*
X102809523Y36053809D01*
X102771428Y35977619D01*
X102733333Y35825238D01*
X102733333Y35710952D01*
X102771428Y35558571D01*
X102809523Y35482380D01*
X102885714Y35406190D01*
X103000000Y35368095D01*
X103076190Y35368095D01*
X103190476Y35406190D01*
X103228571Y35444285D01*
X103228571Y35710952D01*
X103076190Y35710952D01*
X103571428Y35368095D02*
X103571428Y36168095D01*
X104028571Y35368095D01*
X104028571Y36168095D01*
X104409523Y35368095D02*
X104409523Y36168095D01*
X104600000Y36168095D01*
X104714285Y36130000D01*
X104790476Y36053809D01*
X104828571Y35977619D01*
X104866666Y35825238D01*
X104866666Y35710952D01*
X104828571Y35558571D01*
X104790476Y35482380D01*
X104714285Y35406190D01*
X104600000Y35368095D01*
X104409523Y35368095D01*
X112428571Y37908095D02*
X112428571Y38708095D01*
X112733333Y38708095D01*
X112809523Y38670000D01*
X112847619Y38631904D01*
X112885714Y38555714D01*
X112885714Y38441428D01*
X112847619Y38365238D01*
X112809523Y38327142D01*
X112733333Y38289047D01*
X112428571Y38289047D01*
X113380952Y38708095D02*
X113457142Y38708095D01*
X113533333Y38670000D01*
X113571428Y38631904D01*
X113609523Y38555714D01*
X113647619Y38403333D01*
X113647619Y38212857D01*
X113609523Y38060476D01*
X113571428Y37984285D01*
X113533333Y37946190D01*
X113457142Y37908095D01*
X113380952Y37908095D01*
X113304761Y37946190D01*
X113266666Y37984285D01*
X113228571Y38060476D01*
X113190476Y38212857D01*
X113190476Y38403333D01*
X113228571Y38555714D01*
X113266666Y38631904D01*
X113304761Y38670000D01*
X113380952Y38708095D01*
X114409523Y37908095D02*
X113952380Y37908095D01*
X114180952Y37908095D02*
X114180952Y38708095D01*
X114104761Y38593809D01*
X114028571Y38517619D01*
X113952380Y38479523D01*
X112428571Y17588095D02*
X112428571Y18388095D01*
X112733333Y18388095D01*
X112809523Y18350000D01*
X112847619Y18311904D01*
X112885714Y18235714D01*
X112885714Y18121428D01*
X112847619Y18045238D01*
X112809523Y18007142D01*
X112733333Y17969047D01*
X112428571Y17969047D01*
X113380952Y18388095D02*
X113457142Y18388095D01*
X113533333Y18350000D01*
X113571428Y18311904D01*
X113609523Y18235714D01*
X113647619Y18083333D01*
X113647619Y17892857D01*
X113609523Y17740476D01*
X113571428Y17664285D01*
X113533333Y17626190D01*
X113457142Y17588095D01*
X113380952Y17588095D01*
X113304761Y17626190D01*
X113266666Y17664285D01*
X113228571Y17740476D01*
X113190476Y17892857D01*
X113190476Y18083333D01*
X113228571Y18235714D01*
X113266666Y18311904D01*
X113304761Y18350000D01*
X113380952Y18388095D01*
X114333333Y18388095D02*
X114180952Y18388095D01*
X114104761Y18350000D01*
X114066666Y18311904D01*
X113990476Y18197619D01*
X113952380Y18045238D01*
X113952380Y17740476D01*
X113990476Y17664285D01*
X114028571Y17626190D01*
X114104761Y17588095D01*
X114257142Y17588095D01*
X114333333Y17626190D01*
X114371428Y17664285D01*
X114409523Y17740476D01*
X114409523Y17930952D01*
X114371428Y18007142D01*
X114333333Y18045238D01*
X114257142Y18083333D01*
X114104761Y18083333D01*
X114028571Y18045238D01*
X113990476Y18007142D01*
X113952380Y17930952D01*
X112428571Y20128095D02*
X112428571Y20928095D01*
X112733333Y20928095D01*
X112809523Y20890000D01*
X112847619Y20851904D01*
X112885714Y20775714D01*
X112885714Y20661428D01*
X112847619Y20585238D01*
X112809523Y20547142D01*
X112733333Y20509047D01*
X112428571Y20509047D01*
X113380952Y20928095D02*
X113457142Y20928095D01*
X113533333Y20890000D01*
X113571428Y20851904D01*
X113609523Y20775714D01*
X113647619Y20623333D01*
X113647619Y20432857D01*
X113609523Y20280476D01*
X113571428Y20204285D01*
X113533333Y20166190D01*
X113457142Y20128095D01*
X113380952Y20128095D01*
X113304761Y20166190D01*
X113266666Y20204285D01*
X113228571Y20280476D01*
X113190476Y20432857D01*
X113190476Y20623333D01*
X113228571Y20775714D01*
X113266666Y20851904D01*
X113304761Y20890000D01*
X113380952Y20928095D01*
X114371428Y20928095D02*
X113990476Y20928095D01*
X113952380Y20547142D01*
X113990476Y20585238D01*
X114066666Y20623333D01*
X114257142Y20623333D01*
X114333333Y20585238D01*
X114371428Y20547142D01*
X114409523Y20470952D01*
X114409523Y20280476D01*
X114371428Y20204285D01*
X114333333Y20166190D01*
X114257142Y20128095D01*
X114066666Y20128095D01*
X113990476Y20166190D01*
X113952380Y20204285D01*
X102828571Y20128095D02*
X102828571Y20928095D01*
X103133333Y20928095D01*
X103209523Y20890000D01*
X103247619Y20851904D01*
X103285714Y20775714D01*
X103285714Y20661428D01*
X103247619Y20585238D01*
X103209523Y20547142D01*
X103133333Y20509047D01*
X102828571Y20509047D01*
X104047619Y20128095D02*
X103590476Y20128095D01*
X103819047Y20128095D02*
X103819047Y20928095D01*
X103742857Y20813809D01*
X103666666Y20737619D01*
X103590476Y20699523D01*
X104504761Y20585238D02*
X104428571Y20623333D01*
X104390476Y20661428D01*
X104352380Y20737619D01*
X104352380Y20775714D01*
X104390476Y20851904D01*
X104428571Y20890000D01*
X104504761Y20928095D01*
X104657142Y20928095D01*
X104733333Y20890000D01*
X104771428Y20851904D01*
X104809523Y20775714D01*
X104809523Y20737619D01*
X104771428Y20661428D01*
X104733333Y20623333D01*
X104657142Y20585238D01*
X104504761Y20585238D01*
X104428571Y20547142D01*
X104390476Y20509047D01*
X104352380Y20432857D01*
X104352380Y20280476D01*
X104390476Y20204285D01*
X104428571Y20166190D01*
X104504761Y20128095D01*
X104657142Y20128095D01*
X104733333Y20166190D01*
X104771428Y20204285D01*
X104809523Y20280476D01*
X104809523Y20432857D01*
X104771428Y20509047D01*
X104733333Y20547142D01*
X104657142Y20585238D01*
X112428571Y12508095D02*
X112428571Y13308095D01*
X112733333Y13308095D01*
X112809523Y13270000D01*
X112847619Y13231904D01*
X112885714Y13155714D01*
X112885714Y13041428D01*
X112847619Y12965238D01*
X112809523Y12927142D01*
X112733333Y12889047D01*
X112428571Y12889047D01*
X113380952Y13308095D02*
X113457142Y13308095D01*
X113533333Y13270000D01*
X113571428Y13231904D01*
X113609523Y13155714D01*
X113647619Y13003333D01*
X113647619Y12812857D01*
X113609523Y12660476D01*
X113571428Y12584285D01*
X113533333Y12546190D01*
X113457142Y12508095D01*
X113380952Y12508095D01*
X113304761Y12546190D01*
X113266666Y12584285D01*
X113228571Y12660476D01*
X113190476Y12812857D01*
X113190476Y13003333D01*
X113228571Y13155714D01*
X113266666Y13231904D01*
X113304761Y13270000D01*
X113380952Y13308095D01*
X114104761Y12965238D02*
X114028571Y13003333D01*
X113990476Y13041428D01*
X113952380Y13117619D01*
X113952380Y13155714D01*
X113990476Y13231904D01*
X114028571Y13270000D01*
X114104761Y13308095D01*
X114257142Y13308095D01*
X114333333Y13270000D01*
X114371428Y13231904D01*
X114409523Y13155714D01*
X114409523Y13117619D01*
X114371428Y13041428D01*
X114333333Y13003333D01*
X114257142Y12965238D01*
X114104761Y12965238D01*
X114028571Y12927142D01*
X113990476Y12889047D01*
X113952380Y12812857D01*
X113952380Y12660476D01*
X113990476Y12584285D01*
X114028571Y12546190D01*
X114104761Y12508095D01*
X114257142Y12508095D01*
X114333333Y12546190D01*
X114371428Y12584285D01*
X114409523Y12660476D01*
X114409523Y12812857D01*
X114371428Y12889047D01*
X114333333Y12927142D01*
X114257142Y12965238D01*
X102828571Y12508095D02*
X102828571Y13308095D01*
X103133333Y13308095D01*
X103209523Y13270000D01*
X103247619Y13231904D01*
X103285714Y13155714D01*
X103285714Y13041428D01*
X103247619Y12965238D01*
X103209523Y12927142D01*
X103133333Y12889047D01*
X102828571Y12889047D01*
X104047619Y12508095D02*
X103590476Y12508095D01*
X103819047Y12508095D02*
X103819047Y13308095D01*
X103742857Y13193809D01*
X103666666Y13117619D01*
X103590476Y13079523D01*
X104733333Y13308095D02*
X104580952Y13308095D01*
X104504761Y13270000D01*
X104466666Y13231904D01*
X104390476Y13117619D01*
X104352380Y12965238D01*
X104352380Y12660476D01*
X104390476Y12584285D01*
X104428571Y12546190D01*
X104504761Y12508095D01*
X104657142Y12508095D01*
X104733333Y12546190D01*
X104771428Y12584285D01*
X104809523Y12660476D01*
X104809523Y12850952D01*
X104771428Y12927142D01*
X104733333Y12965238D01*
X104657142Y13003333D01*
X104504761Y13003333D01*
X104428571Y12965238D01*
X104390476Y12927142D01*
X104352380Y12850952D01*
X102828571Y25208095D02*
X102828571Y26008095D01*
X103133333Y26008095D01*
X103209523Y25970000D01*
X103247619Y25931904D01*
X103285714Y25855714D01*
X103285714Y25741428D01*
X103247619Y25665238D01*
X103209523Y25627142D01*
X103133333Y25589047D01*
X102828571Y25589047D01*
X103590476Y25931904D02*
X103628571Y25970000D01*
X103704761Y26008095D01*
X103895238Y26008095D01*
X103971428Y25970000D01*
X104009523Y25931904D01*
X104047619Y25855714D01*
X104047619Y25779523D01*
X104009523Y25665238D01*
X103552380Y25208095D01*
X104047619Y25208095D01*
X104542857Y26008095D02*
X104619047Y26008095D01*
X104695238Y25970000D01*
X104733333Y25931904D01*
X104771428Y25855714D01*
X104809523Y25703333D01*
X104809523Y25512857D01*
X104771428Y25360476D01*
X104733333Y25284285D01*
X104695238Y25246190D01*
X104619047Y25208095D01*
X104542857Y25208095D01*
X104466666Y25246190D01*
X104428571Y25284285D01*
X104390476Y25360476D01*
X104352380Y25512857D01*
X104352380Y25703333D01*
X104390476Y25855714D01*
X104428571Y25931904D01*
X104466666Y25970000D01*
X104542857Y26008095D01*
X112428571Y15048095D02*
X112428571Y15848095D01*
X112733333Y15848095D01*
X112809523Y15810000D01*
X112847619Y15771904D01*
X112885714Y15695714D01*
X112885714Y15581428D01*
X112847619Y15505238D01*
X112809523Y15467142D01*
X112733333Y15429047D01*
X112428571Y15429047D01*
X113380952Y15848095D02*
X113457142Y15848095D01*
X113533333Y15810000D01*
X113571428Y15771904D01*
X113609523Y15695714D01*
X113647619Y15543333D01*
X113647619Y15352857D01*
X113609523Y15200476D01*
X113571428Y15124285D01*
X113533333Y15086190D01*
X113457142Y15048095D01*
X113380952Y15048095D01*
X113304761Y15086190D01*
X113266666Y15124285D01*
X113228571Y15200476D01*
X113190476Y15352857D01*
X113190476Y15543333D01*
X113228571Y15695714D01*
X113266666Y15771904D01*
X113304761Y15810000D01*
X113380952Y15848095D01*
X113914285Y15848095D02*
X114447619Y15848095D01*
X114104761Y15048095D01*
X112428571Y22668095D02*
X112428571Y23468095D01*
X112733333Y23468095D01*
X112809523Y23430000D01*
X112847619Y23391904D01*
X112885714Y23315714D01*
X112885714Y23201428D01*
X112847619Y23125238D01*
X112809523Y23087142D01*
X112733333Y23049047D01*
X112428571Y23049047D01*
X113380952Y23468095D02*
X113457142Y23468095D01*
X113533333Y23430000D01*
X113571428Y23391904D01*
X113609523Y23315714D01*
X113647619Y23163333D01*
X113647619Y22972857D01*
X113609523Y22820476D01*
X113571428Y22744285D01*
X113533333Y22706190D01*
X113457142Y22668095D01*
X113380952Y22668095D01*
X113304761Y22706190D01*
X113266666Y22744285D01*
X113228571Y22820476D01*
X113190476Y22972857D01*
X113190476Y23163333D01*
X113228571Y23315714D01*
X113266666Y23391904D01*
X113304761Y23430000D01*
X113380952Y23468095D01*
X114333333Y23201428D02*
X114333333Y22668095D01*
X114142857Y23506190D02*
X113952380Y22934761D01*
X114447619Y22934761D01*
X112428571Y25208095D02*
X112428571Y26008095D01*
X112733333Y26008095D01*
X112809523Y25970000D01*
X112847619Y25931904D01*
X112885714Y25855714D01*
X112885714Y25741428D01*
X112847619Y25665238D01*
X112809523Y25627142D01*
X112733333Y25589047D01*
X112428571Y25589047D01*
X113380952Y26008095D02*
X113457142Y26008095D01*
X113533333Y25970000D01*
X113571428Y25931904D01*
X113609523Y25855714D01*
X113647619Y25703333D01*
X113647619Y25512857D01*
X113609523Y25360476D01*
X113571428Y25284285D01*
X113533333Y25246190D01*
X113457142Y25208095D01*
X113380952Y25208095D01*
X113304761Y25246190D01*
X113266666Y25284285D01*
X113228571Y25360476D01*
X113190476Y25512857D01*
X113190476Y25703333D01*
X113228571Y25855714D01*
X113266666Y25931904D01*
X113304761Y25970000D01*
X113380952Y26008095D01*
X113914285Y26008095D02*
X114409523Y26008095D01*
X114142857Y25703333D01*
X114257142Y25703333D01*
X114333333Y25665238D01*
X114371428Y25627142D01*
X114409523Y25550952D01*
X114409523Y25360476D01*
X114371428Y25284285D01*
X114333333Y25246190D01*
X114257142Y25208095D01*
X114028571Y25208095D01*
X113952380Y25246190D01*
X113914285Y25284285D01*
X112790476Y31050000D02*
X112714285Y31088095D01*
X112600000Y31088095D01*
X112485714Y31050000D01*
X112409523Y30973809D01*
X112371428Y30897619D01*
X112333333Y30745238D01*
X112333333Y30630952D01*
X112371428Y30478571D01*
X112409523Y30402380D01*
X112485714Y30326190D01*
X112600000Y30288095D01*
X112676190Y30288095D01*
X112790476Y30326190D01*
X112828571Y30364285D01*
X112828571Y30630952D01*
X112676190Y30630952D01*
X113171428Y30288095D02*
X113171428Y31088095D01*
X113628571Y30288095D01*
X113628571Y31088095D01*
X114009523Y30288095D02*
X114009523Y31088095D01*
X114200000Y31088095D01*
X114314285Y31050000D01*
X114390476Y30973809D01*
X114428571Y30897619D01*
X114466666Y30745238D01*
X114466666Y30630952D01*
X114428571Y30478571D01*
X114390476Y30402380D01*
X114314285Y30326190D01*
X114200000Y30288095D01*
X114009523Y30288095D01*
X102828571Y15048095D02*
X102828571Y15848095D01*
X103133333Y15848095D01*
X103209523Y15810000D01*
X103247619Y15771904D01*
X103285714Y15695714D01*
X103285714Y15581428D01*
X103247619Y15505238D01*
X103209523Y15467142D01*
X103133333Y15429047D01*
X102828571Y15429047D01*
X104047619Y15048095D02*
X103590476Y15048095D01*
X103819047Y15048095D02*
X103819047Y15848095D01*
X103742857Y15733809D01*
X103666666Y15657619D01*
X103590476Y15619523D01*
X104733333Y15581428D02*
X104733333Y15048095D01*
X104542857Y15886190D02*
X104352380Y15314761D01*
X104847619Y15314761D01*
X102250000Y39540000D02*
X99710000Y39540000D01*
X117490000Y9060000D02*
X117490000Y42080000D01*
X117490000Y42080000D02*
X99710000Y42080000D01*
X102250000Y39540000D02*
X102250000Y37000000D01*
X99710000Y9060000D02*
X117490000Y9060000D01*
X102250000Y37000000D02*
X99710000Y37000000D01*
X99710000Y42080000D02*
X99710000Y9060000D01*
%TD*%
D11*
%TO.C,*%
X107450000Y9000000D03*
X108950000Y9000000D03*
%TD*%
D12*
%TO.C,MCU1*%
X100980000Y38270000D03*
D13*
X100980000Y35730000D03*
X100980000Y33190000D03*
X100980000Y30650000D03*
X100980000Y28110000D03*
X100980000Y25570000D03*
X100980000Y23030000D03*
X100980000Y20490000D03*
X100980000Y17950000D03*
X100980000Y15410000D03*
X100980000Y12870000D03*
X100980000Y10330000D03*
X116220000Y38270000D03*
X116220000Y35730000D03*
X116220000Y33190000D03*
X116220000Y30650000D03*
X116220000Y28110000D03*
X116220000Y25570000D03*
X116220000Y23030000D03*
X116220000Y20490000D03*
X116220000Y17950000D03*
X116220000Y15410000D03*
X116220000Y12870000D03*
X116220000Y10330000D03*
%TD*%
M02*
