M48
; DRILL file {KiCad (6.0.7-1)-1} date Sunday, October 23, 2022 at 01:42:39 PM
; FORMAT={-:-/ absolute / inch / decimal}
; #@! TF.CreationDate,2022-10-23T13:42:39-07:00
; #@! TF.GenerationSoftware,Kicad,Pcbnew,(6.0.7-1)-1
; #@! TF.FileFunction,Plated,1,2,PTH
FMAT,2
INCH
; #@! TA.AperFunction,Plated,PTH,ComponentDrill
T1C0.0118
; #@! TA.AperFunction,Plated,PTH,ComponentDrill
T2C0.0276
; #@! TA.AperFunction,Plated,PTH,ComponentDrill
T3C0.0430
; #@! TA.AperFunction,Plated,PTH,ComponentDrill
T4C0.0500
%
G90
G05
T1
X4.2323Y1.4567
X4.2323Y1.2008
X4.311Y1.4567
X4.311Y1.2008
T2
X4.2303Y0.3543
X4.2894Y0.3543
T3
X3.9756Y1.5067
X3.9756Y1.4067
X3.9756Y1.3067
X3.9756Y1.2067
X3.9756Y1.1067
X3.9756Y1.0067
X3.9756Y0.9067
X3.9756Y0.8067
X3.9756Y0.7067
X3.9756Y0.6067
X3.9756Y0.5067
X3.9756Y0.4067
X4.5756Y1.5067
X4.5756Y1.4067
X4.5756Y1.3067
X4.5756Y1.2067
X4.5756Y1.1067
X4.5756Y1.0067
X4.5756Y0.9067
X4.5756Y0.8067
X4.5756Y0.7067
X4.5756Y0.6067
X4.5756Y0.5067
X4.5756Y0.4067
T4
X0.5118Y1.189
X0.5118Y0.5197
X0.5118Y-0.1496
X0.7087Y1.1063
X0.7087Y1.1063
X0.7087Y0.437
X0.7087Y0.437
X0.7087Y-0.2323
X0.7087Y-0.2323
X0.9055Y1.189
X0.9055Y0.5197
X0.9055Y-0.1496
X1.2205Y1.189
X1.2205Y0.5197
X1.2205Y-0.1496
X1.4173Y1.1063
X1.4173Y1.1063
X1.4173Y0.437
X1.4173Y0.437
X1.4173Y-0.2323
X1.4173Y-0.2323
X1.6142Y1.189
X1.6142Y0.5197
X1.6142Y-0.1496
X1.9291Y1.189
X1.9291Y0.5197
X1.9291Y-0.1496
X2.126Y1.1063
X2.126Y1.1063
X2.126Y0.437
X2.126Y0.437
X2.126Y-0.2323
X2.126Y-0.2323
X2.3228Y1.189
X2.3228Y0.5197
X2.3228Y-0.1496
X2.6378Y1.189
X2.6378Y0.5197
X2.6378Y-0.1496
X2.8346Y1.1063
X2.8346Y1.1063
X2.8346Y0.437
X2.8346Y0.437
X2.8346Y-0.2323
X2.8346Y-0.2323
X3.0315Y1.189
X3.0315Y0.5197
X3.0315Y-0.1496
X3.3465Y1.189
X3.3465Y0.5197
X3.3465Y-0.1496
X3.5433Y1.1063
X3.5433Y1.1063
X3.5433Y0.437
X3.5433Y0.437
X3.5433Y-0.2323
X3.5433Y-0.2323
X3.7402Y1.189
X3.7402Y0.5197
X3.7402Y-0.1496
X4.0551Y-0.1496
X4.252Y-0.2323
X4.252Y-0.2323
X4.4488Y-0.1496
T0
M30
