%TF.GenerationSoftware,KiCad,Pcbnew,(6.0.7-1)-1*%
%TF.CreationDate,2022-10-23T13:42:43-07:00*%
%TF.ProjectId,card,63617264-2e6b-4696-9361-645f70636258,v1.0.0*%
%TF.SameCoordinates,Original*%
%TF.FileFunction,Copper,L1,Top*%
%TF.FilePolarity,Positive*%
%FSLAX46Y46*%
G04 Gerber Fmt 4.6, Leading zero omitted, Abs format (unit mm)*
G04 Created by KiCad (PCBNEW (6.0.7-1)-1) date 2022-10-23 13:42:43*
%MOMM*%
%LPD*%
G01*
G04 APERTURE LIST*
%TA.AperFunction,ComponentPad*%
%ADD10C,1.000000*%
%TD*%
%TA.AperFunction,SMDPad,CuDef*%
%ADD11R,1.000000X0.800000*%
%TD*%
%TA.AperFunction,SMDPad,CuDef*%
%ADD12R,0.700000X1.500000*%
%TD*%
%TA.AperFunction,ComponentPad*%
%ADD13C,2.032000*%
%TD*%
%TA.AperFunction,SMDPad,CuDef*%
%ADD14R,2.600000X2.600000*%
%TD*%
%TA.AperFunction,ComponentPad*%
%ADD15C,0.600000*%
%TD*%
%TA.AperFunction,SMDPad,CuDef*%
%ADD16R,0.900000X1.700000*%
%TD*%
%TA.AperFunction,ComponentPad*%
%ADD17R,1.752600X1.752600*%
%TD*%
%TA.AperFunction,ComponentPad*%
%ADD18C,1.752600*%
%TD*%
%TA.AperFunction,Conductor*%
%ADD19C,0.250000*%
%TD*%
G04 APERTURE END LIST*
D10*
%TO.P,,1*%
%TO.N,pos*%
X107450000Y9000000D03*
%TO.P,,2*%
%TO.N,GND*%
X108950000Y9000000D03*
%TD*%
D11*
%TO.P,,*%
%TO.N,*%
X112150000Y41930000D03*
X112150000Y39720000D03*
X104850000Y39720000D03*
X104850000Y41930000D03*
D12*
%TO.P,,1*%
%TO.N,pos*%
X110750000Y39070000D03*
%TO.P,,2*%
%TO.N,RAW*%
X107750000Y39070000D03*
%TO.P,,3*%
%TO.N,N/C*%
X106250000Y39070000D03*
%TD*%
D13*
%TO.P,S24,1*%
%TO.N,P21*%
X77000000Y30200000D03*
X67000000Y30200000D03*
%TO.P,S24,2*%
%TO.N,GND*%
X72000000Y28100000D03*
X72000000Y28100000D03*
%TD*%
D14*
%TO.P,S31,1*%
%TO.N,P9*%
X111275000Y5950000D03*
%TO.P,S31,2*%
%TO.N,GND*%
X99725000Y3750000D03*
%TD*%
D13*
%TO.P,S18,1*%
%TO.N,P3*%
X49000000Y30200000D03*
X59000000Y30200000D03*
%TO.P,S18,2*%
%TO.N,GND*%
X54000000Y28100000D03*
X54000000Y28100000D03*
%TD*%
%TO.P,S6,1*%
%TO.N,P19*%
X13000000Y30200000D03*
X23000000Y30200000D03*
%TO.P,S6,2*%
%TO.N,GND*%
X18000000Y28100000D03*
X18000000Y28100000D03*
%TD*%
D15*
%TO.P,REF\u002A\u002A,1*%
%TO.N,RAW*%
X107500000Y37000000D03*
%TD*%
D14*
%TO.P,S15,1*%
%TO.N,P14*%
X57275000Y22950000D03*
%TO.P,S15,2*%
%TO.N,GND*%
X45725000Y20750000D03*
%TD*%
D13*
%TO.P,S28,1*%
%TO.N,P18*%
X95000000Y13200000D03*
X85000000Y13200000D03*
%TO.P,S28,2*%
%TO.N,GND*%
X90000000Y11100000D03*
X90000000Y11100000D03*
%TD*%
%TO.P,S8,1*%
%TO.N,P5*%
X31000000Y-3800000D03*
X41000000Y-3800000D03*
%TO.P,S8,2*%
%TO.N,GND*%
X36000000Y-5900000D03*
X36000000Y-5900000D03*
%TD*%
D14*
%TO.P,S19,1*%
%TO.N,P7*%
X75275000Y5950000D03*
%TO.P,S19,2*%
%TO.N,GND*%
X63725000Y3750000D03*
%TD*%
%TO.P,S11,1*%
%TO.N,P20*%
X39275000Y39950000D03*
%TO.P,S11,2*%
%TO.N,GND*%
X27725000Y37750000D03*
%TD*%
%TO.P,S7,1*%
%TO.N,P5*%
X39275000Y5950000D03*
%TO.P,S7,2*%
%TO.N,GND*%
X27725000Y3750000D03*
%TD*%
D13*
%TO.P,S22,1*%
%TO.N,P15*%
X67000000Y13200000D03*
X77000000Y13200000D03*
%TO.P,S22,2*%
%TO.N,GND*%
X72000000Y11100000D03*
X72000000Y11100000D03*
%TD*%
D14*
%TO.P,S27,1*%
%TO.N,P18*%
X93275000Y22950000D03*
%TO.P,S27,2*%
%TO.N,GND*%
X81725000Y20750000D03*
%TD*%
%TO.P,S9,1*%
%TO.N,P16*%
X39275000Y22950000D03*
%TO.P,S9,2*%
%TO.N,GND*%
X27725000Y20750000D03*
%TD*%
D13*
%TO.P,S12,1*%
%TO.N,P20*%
X41000000Y30200000D03*
X31000000Y30200000D03*
%TO.P,S12,2*%
%TO.N,GND*%
X36000000Y28100000D03*
X36000000Y28100000D03*
%TD*%
D15*
%TO.P,REF\u002A\u002A,1*%
%TO.N,pos*%
X109500000Y37000000D03*
%TD*%
D16*
%TO.P,,1*%
%TO.N,RST*%
X110200000Y33000000D03*
%TO.P,,2*%
%TO.N,GND*%
X106800000Y33000000D03*
%TD*%
D14*
%TO.P,S17,1*%
%TO.N,P3*%
X57275000Y39950000D03*
%TO.P,S17,2*%
%TO.N,GND*%
X45725000Y37750000D03*
%TD*%
%TO.P,S21,1*%
%TO.N,P15*%
X75275000Y22950000D03*
%TO.P,S21,2*%
%TO.N,GND*%
X63725000Y20750000D03*
%TD*%
%TO.P,S25,1*%
%TO.N,P8*%
X93275000Y5950000D03*
%TO.P,S25,2*%
%TO.N,GND*%
X81725000Y3750000D03*
%TD*%
D13*
%TO.P,S26,1*%
%TO.N,P8*%
X85000000Y-3800000D03*
X95000000Y-3800000D03*
%TO.P,S26,2*%
%TO.N,GND*%
X90000000Y-5900000D03*
X90000000Y-5900000D03*
%TD*%
D14*
%TO.P,S3,1*%
%TO.N,P10*%
X21275000Y22950000D03*
%TO.P,S3,2*%
%TO.N,GND*%
X9725000Y20750000D03*
%TD*%
%TO.P,S5,1*%
%TO.N,P19*%
X21275000Y39950000D03*
%TO.P,S5,2*%
%TO.N,GND*%
X9725000Y37750000D03*
%TD*%
D13*
%TO.P,S2,1*%
%TO.N,P4*%
X23000000Y-3800000D03*
X13000000Y-3800000D03*
%TO.P,S2,2*%
%TO.N,GND*%
X18000000Y-5900000D03*
X18000000Y-5900000D03*
%TD*%
%TO.P,S16,1*%
%TO.N,P14*%
X49000000Y13200000D03*
X59000000Y13200000D03*
%TO.P,S16,2*%
%TO.N,GND*%
X54000000Y11100000D03*
X54000000Y11100000D03*
%TD*%
%TO.P,S30,1*%
%TO.N,P2*%
X85000000Y30200000D03*
X95000000Y30200000D03*
%TO.P,S30,2*%
%TO.N,GND*%
X90000000Y28100000D03*
X90000000Y28100000D03*
%TD*%
%TO.P,S14,1*%
%TO.N,P6*%
X59000000Y-3800000D03*
X49000000Y-3800000D03*
%TO.P,S14,2*%
%TO.N,GND*%
X54000000Y-5900000D03*
X54000000Y-5900000D03*
%TD*%
%TO.P,S4,1*%
%TO.N,P10*%
X23000000Y13200000D03*
X13000000Y13200000D03*
%TO.P,S4,2*%
%TO.N,GND*%
X18000000Y11100000D03*
X18000000Y11100000D03*
%TD*%
%TO.P,S32,1*%
%TO.N,P9*%
X103000000Y-3800000D03*
X113000000Y-3800000D03*
%TO.P,S32,2*%
%TO.N,GND*%
X108000000Y-5900000D03*
X108000000Y-5900000D03*
%TD*%
D15*
%TO.P,REF\u002A\u002A,1*%
%TO.N,GND*%
X107500000Y30500000D03*
%TD*%
D14*
%TO.P,S29,1*%
%TO.N,P2*%
X93275000Y39950000D03*
%TO.P,S29,2*%
%TO.N,GND*%
X81725000Y37750000D03*
%TD*%
%TO.P,S13,1*%
%TO.N,P6*%
X57275000Y5950000D03*
%TO.P,S13,2*%
%TO.N,GND*%
X45725000Y3750000D03*
%TD*%
%TO.P,S23,1*%
%TO.N,P21*%
X75275000Y39950000D03*
%TO.P,S23,2*%
%TO.N,GND*%
X63725000Y37750000D03*
%TD*%
D13*
%TO.P,S20,1*%
%TO.N,P7*%
X77000000Y-3800000D03*
X67000000Y-3800000D03*
%TO.P,S20,2*%
%TO.N,GND*%
X72000000Y-5900000D03*
X72000000Y-5900000D03*
%TD*%
D17*
%TO.P,MCU1,1*%
%TO.N,RAW*%
X100980000Y38270000D03*
D18*
%TO.P,MCU1,2*%
%TO.N,GND*%
X100980000Y35730000D03*
%TO.P,MCU1,3*%
%TO.N,RST*%
X100980000Y33190000D03*
%TO.P,MCU1,4*%
%TO.N,VCC*%
X100980000Y30650000D03*
%TO.P,MCU1,5*%
%TO.N,P21*%
X100980000Y28110000D03*
%TO.P,MCU1,6*%
%TO.N,P20*%
X100980000Y25570000D03*
%TO.P,MCU1,7*%
%TO.N,P19*%
X100980000Y23030000D03*
%TO.P,MCU1,8*%
%TO.N,P18*%
X100980000Y20490000D03*
%TO.P,MCU1,9*%
%TO.N,P15*%
X100980000Y17950000D03*
%TO.P,MCU1,10*%
%TO.N,P14*%
X100980000Y15410000D03*
%TO.P,MCU1,11*%
%TO.N,P16*%
X100980000Y12870000D03*
%TO.P,MCU1,12*%
%TO.N,P10*%
X100980000Y10330000D03*
%TO.P,MCU1,13*%
%TO.N,P1*%
X116220000Y38270000D03*
%TO.P,MCU1,14*%
%TO.N,P0*%
X116220000Y35730000D03*
%TO.P,MCU1,15*%
%TO.N,GND*%
X116220000Y33190000D03*
%TO.P,MCU1,16*%
X116220000Y30650000D03*
%TO.P,MCU1,17*%
%TO.N,P2*%
X116220000Y28110000D03*
%TO.P,MCU1,18*%
%TO.N,P3*%
X116220000Y25570000D03*
%TO.P,MCU1,19*%
%TO.N,P4*%
X116220000Y23030000D03*
%TO.P,MCU1,20*%
%TO.N,P5*%
X116220000Y20490000D03*
%TO.P,MCU1,21*%
%TO.N,P6*%
X116220000Y17950000D03*
%TO.P,MCU1,22*%
%TO.N,P7*%
X116220000Y15410000D03*
%TO.P,MCU1,23*%
%TO.N,P8*%
X116220000Y12870000D03*
%TO.P,MCU1,24*%
%TO.N,P9*%
X116220000Y10330000D03*
%TD*%
D15*
%TO.P,REF\u002A\u002A,1*%
%TO.N,RST*%
X109500000Y30500000D03*
%TD*%
D13*
%TO.P,S10,1*%
%TO.N,P16*%
X41000000Y13200000D03*
X31000000Y13200000D03*
%TO.P,S10,2*%
%TO.N,GND*%
X36000000Y11100000D03*
X36000000Y11100000D03*
%TD*%
D14*
%TO.P,S1,1*%
%TO.N,P4*%
X21275000Y5950000D03*
%TO.P,S1,2*%
%TO.N,GND*%
X9725000Y3750000D03*
%TD*%
D19*
%TO.N,RAW*%
X107500000Y37000000D02*
X106680000Y36180000D01*
X103070000Y36180000D02*
X100980000Y38270000D01*
X106680000Y36180000D02*
X103070000Y36180000D01*
%TO.N,GND*%
X116220000Y33190000D02*
X113680000Y35730000D01*
X113680000Y35730000D02*
X100980000Y35730000D01*
X116220000Y33190000D02*
X116220000Y30650000D01*
%TO.N,RAW*%
X107500000Y37000000D02*
X107500000Y38820000D01*
X107500000Y38820000D02*
X107750000Y39070000D01*
%TO.N,pos*%
X109500000Y37000000D02*
X109500000Y37820000D01*
X109500000Y37820000D02*
X110750000Y39070000D01*
%TO.N,P2*%
X95000000Y30200000D02*
X95888700Y29311300D01*
X95888700Y29311300D02*
X115018700Y29311300D01*
X115018700Y29311300D02*
X116220000Y28110000D01*
%TO.N,RST*%
X109500000Y30500000D02*
X108875000Y29875000D01*
X108875000Y29875000D02*
X104295000Y29875000D01*
X104295000Y29875000D02*
X100980000Y33190000D01*
%TO.N,GND*%
X106800000Y33000000D02*
X103710000Y33000000D01*
X103710000Y33000000D02*
X100980000Y35730000D01*
%TO.N,RST*%
X110200000Y33000000D02*
X110200000Y31200000D01*
X110200000Y31200000D02*
X109500000Y30500000D01*
%TO.N,GND*%
X106800000Y33000000D02*
X106800000Y31200000D01*
X106800000Y31200000D02*
X107500000Y30500000D01*
X27725000Y37750000D02*
X27725000Y30561718D01*
X30186718Y28100000D02*
X36000000Y28100000D01*
X27725000Y30561718D02*
X30186718Y28100000D01*
X45725000Y37750000D02*
X45725000Y30561718D01*
X45725000Y30561718D02*
X48186718Y28100000D01*
X48186718Y28100000D02*
X54000000Y28100000D01*
X63725000Y37750000D02*
X63725000Y31578539D01*
X67203539Y28100000D02*
X72000000Y28100000D01*
X63725000Y31578539D02*
X67203539Y28100000D01*
X81725000Y37750000D02*
X81725000Y31578539D01*
X81725000Y31578539D02*
X85203539Y28100000D01*
X85203539Y28100000D02*
X90000000Y28100000D01*
%TO.N,P19*%
X100980000Y23030000D02*
X98890000Y25120000D01*
X98890000Y25120000D02*
X28080000Y25120000D01*
X28080000Y25120000D02*
X23000000Y30200000D01*
%TO.N,P20*%
X100980000Y25570000D02*
X45630000Y25570000D01*
X45630000Y25570000D02*
X41000000Y30200000D01*
%TO.N,P3*%
X116220000Y25570000D02*
X115018700Y26771300D01*
X115018700Y26771300D02*
X100431300Y26771300D01*
X100431300Y26771300D02*
X99969000Y26309000D01*
X99969000Y26309000D02*
X62891000Y26309000D01*
X62891000Y26309000D02*
X59000000Y30200000D01*
%TO.N,P21*%
X100980000Y28110000D02*
X99629000Y26759000D01*
X80441000Y26759000D02*
X77000000Y30200000D01*
X99629000Y26759000D02*
X80441000Y26759000D01*
%TO.N,GND*%
X27000000Y11100000D02*
X26340000Y11100000D01*
X27725000Y20750000D02*
X27725000Y12485000D01*
X26340000Y11100000D02*
X18000000Y11100000D01*
X27725000Y12485000D02*
X26340000Y11100000D01*
X90000000Y11100000D02*
X80340000Y11100000D01*
X80340000Y11100000D02*
X72000000Y11100000D01*
X81725000Y20750000D02*
X81725000Y12485000D01*
X81725000Y12485000D02*
X80340000Y11100000D01*
X72000000Y11100000D02*
X62560000Y11100000D01*
X62560000Y11100000D02*
X54000000Y11100000D01*
X63725000Y20750000D02*
X63725000Y12265000D01*
X63725000Y12265000D02*
X62560000Y11100000D01*
X54000000Y11100000D02*
X44120000Y11100000D01*
X44120000Y11100000D02*
X36000000Y11100000D01*
X45725000Y20750000D02*
X45725000Y12705000D01*
X45725000Y12705000D02*
X44120000Y11100000D01*
X36000000Y11100000D02*
X27000000Y11100000D01*
X36000000Y-5900000D02*
X26220000Y-5900000D01*
X26220000Y-5900000D02*
X18000000Y-5900000D01*
X27725000Y3750000D02*
X27725000Y-4395000D01*
X27725000Y-4395000D02*
X26220000Y-5900000D01*
X108000000Y-5900000D02*
X98240000Y-5900000D01*
X98240000Y-5900000D02*
X90000000Y-5900000D01*
X99725000Y3750000D02*
X99725000Y-4415000D01*
X99725000Y-4415000D02*
X98240000Y-5900000D01*
X90000000Y-5900000D02*
X80460000Y-5900000D01*
X80460000Y-5900000D02*
X72000000Y-5900000D01*
X81725000Y-4635000D02*
X80460000Y-5900000D01*
X81725000Y3750000D02*
X81725000Y-4635000D01*
X54000000Y-5900000D02*
X44900000Y-5900000D01*
X45725000Y-5075000D02*
X44900000Y-5900000D01*
X44900000Y-5900000D02*
X36000000Y-5900000D01*
X45725000Y3750000D02*
X45725000Y-5075000D01*
X72000000Y-5900000D02*
X62680000Y-5900000D01*
X63725000Y-4855000D02*
X62680000Y-5900000D01*
X62680000Y-5900000D02*
X54000000Y-5900000D01*
X63725000Y3750000D02*
X63725000Y-4855000D01*
%TO.N,P4*%
X116220000Y23030000D02*
X100615001Y7425001D01*
X100615001Y7425001D02*
X97079188Y7425001D01*
X97079188Y7425001D02*
X94925489Y9578700D01*
X94925489Y9578700D02*
X24903700Y9578700D01*
X24903700Y9578700D02*
X21275000Y5950000D01*
%TO.N,P5*%
X116220000Y20490000D02*
X114470000Y20490000D01*
X114470000Y20490000D02*
X100955001Y6975001D01*
X100955001Y6975001D02*
X96892792Y6975001D01*
X94739093Y9128700D02*
X42453700Y9128700D01*
X96892792Y6975001D02*
X94739093Y9128700D01*
X42453700Y9128700D02*
X39275000Y5950000D01*
%TO.N,P6*%
X116220000Y17950000D02*
X112566396Y17950000D01*
X112566396Y17950000D02*
X101141397Y6525001D01*
X101141397Y6525001D02*
X96706396Y6525001D01*
X96706396Y6525001D02*
X94552697Y8678700D01*
X94552697Y8678700D02*
X60003700Y8678700D01*
X60003700Y8678700D02*
X57275000Y5950000D01*
%TO.N,P7*%
X75275000Y5950000D02*
X77553700Y8228700D01*
X94366301Y8228700D02*
X96520000Y6075001D01*
X110662792Y15410000D02*
X116220000Y15410000D01*
X77553700Y8228700D02*
X94366301Y8228700D01*
X96520000Y6075001D02*
X101327793Y6075001D01*
X101327793Y6075001D02*
X110662792Y15410000D01*
%TO.N,P8*%
X116220000Y12870000D02*
X108759188Y12870000D01*
X108759188Y12870000D02*
X101514189Y5625001D01*
X101514189Y5625001D02*
X93599999Y5625001D01*
X93599999Y5625001D02*
X93275000Y5950000D01*
%TO.N,GND*%
X9725000Y3750000D02*
X9725000Y20750000D01*
X9725000Y20750000D02*
X9725000Y28375000D01*
X9725000Y28375000D02*
X9725000Y37750000D01*
X18000000Y28100000D02*
X10000000Y28100000D01*
X10000000Y28100000D02*
X9725000Y28375000D01*
%TO.N,P19*%
X23000000Y30200000D02*
X13000000Y30200000D01*
%TO.N,P20*%
X41000000Y30200000D02*
X31000000Y30200000D01*
%TO.N,P3*%
X59000000Y30200000D02*
X49000000Y30200000D01*
%TO.N,P21*%
X77000000Y30200000D02*
X67000000Y30200000D01*
%TO.N,P2*%
X95000000Y30200000D02*
X85000000Y30200000D01*
%TO.N,P18*%
X95000000Y13200000D02*
X85000000Y13200000D01*
%TO.N,P15*%
X77000000Y13200000D02*
X67000000Y13200000D01*
%TO.N,P14*%
X59000000Y13200000D02*
X49000000Y13200000D01*
%TO.N,P16*%
X41000000Y13200000D02*
X31000000Y13200000D01*
%TO.N,P10*%
X23000000Y13200000D02*
X13000000Y13200000D01*
%TO.N,P4*%
X23000000Y-3800000D02*
X13000000Y-3800000D01*
%TO.N,P5*%
X41000000Y-3800000D02*
X31000000Y-3800000D01*
%TO.N,P6*%
X59000000Y-3800000D02*
X49000000Y-3800000D01*
%TO.N,P7*%
X77000000Y-3800000D02*
X67000000Y-3800000D01*
%TO.N,P8*%
X95000000Y-3800000D02*
X85000000Y-3800000D01*
%TO.N,P9*%
X113000000Y-3800000D02*
X103000000Y-3800000D01*
%TO.N,P2*%
X95000000Y30200000D02*
X93124999Y32075001D01*
X93124999Y32075001D02*
X93124999Y39799999D01*
X93124999Y39799999D02*
X93275000Y39950000D01*
%TO.N,P21*%
X77000000Y30200000D02*
X75124999Y32075001D01*
X75124999Y32075001D02*
X75124999Y39799999D01*
X75124999Y39799999D02*
X75275000Y39950000D01*
%TO.N,P3*%
X57275000Y39950000D02*
X57124999Y39799999D01*
X57124999Y39799999D02*
X57124999Y32075001D01*
X57124999Y32075001D02*
X59000000Y30200000D01*
%TO.N,P20*%
X39275000Y39950000D02*
X39124999Y39799999D01*
X39124999Y39799999D02*
X39124999Y31995001D01*
X39124999Y31995001D02*
X40920000Y30200000D01*
X40920000Y30200000D02*
X41000000Y30200000D01*
%TO.N,P19*%
X23000000Y30200000D02*
X21124999Y32075001D01*
X21124999Y32075001D02*
X21124999Y39799999D01*
X21124999Y39799999D02*
X21275000Y39950000D01*
%TO.N,P10*%
X21275000Y22950000D02*
X21124999Y22799999D01*
X21124999Y15075001D02*
X23000000Y13200000D01*
X21124999Y22799999D02*
X21124999Y15075001D01*
%TO.N,P16*%
X39275000Y22950000D02*
X39124999Y22799999D01*
X39124999Y22799999D02*
X39124999Y15075001D01*
X39124999Y15075001D02*
X41000000Y13200000D01*
%TO.N,P14*%
X59000000Y13200000D02*
X57124999Y15075001D01*
X57124999Y15075001D02*
X57124999Y22799999D01*
X57124999Y22799999D02*
X57275000Y22950000D01*
%TO.N,P15*%
X75275000Y22950000D02*
X75124999Y22799999D01*
X75124999Y22799999D02*
X75124999Y15075001D01*
X75124999Y15075001D02*
X77000000Y13200000D01*
%TO.N,P18*%
X93275000Y22950000D02*
X93124999Y23100001D01*
X93124999Y23100001D02*
X93124999Y15075001D01*
X93124999Y15075001D02*
X95000000Y13200000D01*
%TO.N,P9*%
X111275000Y5950000D02*
X111840000Y5950000D01*
X111840000Y5950000D02*
X116220000Y10330000D01*
%TO.N,P4*%
X21275000Y5950000D02*
X21124999Y6100001D01*
X21124999Y6100001D02*
X21124999Y-1924999D01*
X21124999Y-1924999D02*
X23000000Y-3800000D01*
%TO.N,P9*%
X113000000Y-3800000D02*
X111124999Y-1924999D01*
X111124999Y-1924999D02*
X111124999Y5080000D01*
%TO.N,P8*%
X95000000Y-3800000D02*
X93124999Y-1924999D01*
X93124999Y-1924999D02*
X93124999Y5080000D01*
%TO.N,P7*%
X75275000Y5950000D02*
X75124999Y6100001D01*
X75124999Y6100001D02*
X75124999Y-1924999D01*
X75124999Y-1924999D02*
X77000000Y-3800000D01*
%TO.N,P6*%
X57275000Y5950000D02*
X57124999Y6100001D01*
X57124999Y6100001D02*
X57124999Y-1924999D01*
X57124999Y-1924999D02*
X59000000Y-3800000D01*
%TO.N,P5*%
X39275000Y5950000D02*
X39124999Y6100001D01*
X39124999Y6100001D02*
X39124999Y-1924999D01*
X39124999Y-1924999D02*
X41000000Y-3800000D01*
%TO.N,GND*%
X10980000Y-5900000D02*
X9725000Y-4645000D01*
X18000000Y-5900000D02*
X10980000Y-5900000D01*
X9725000Y-4645000D02*
X9725000Y3750000D01*
%TD*%
M02*
