%TF.GenerationSoftware,KiCad,Pcbnew,(6.0.7-1)-1*%
%TF.CreationDate,2022-10-23T13:42:43-07:00*%
%TF.ProjectId,card,63617264-2e6b-4696-9361-645f70636258,v1.0.0*%
%TF.SameCoordinates,Original*%
%TF.FileFunction,Copper,L2,Bot*%
%TF.FilePolarity,Positive*%
%FSLAX46Y46*%
G04 Gerber Fmt 4.6, Leading zero omitted, Abs format (unit mm)*
G04 Created by KiCad (PCBNEW (6.0.7-1)-1) date 2022-10-23 13:42:43*
%MOMM*%
%LPD*%
G01*
G04 APERTURE LIST*
%TA.AperFunction,ComponentPad*%
%ADD10C,1.000000*%
%TD*%
%TA.AperFunction,SMDPad,CuDef*%
%ADD11R,1.000000X0.800000*%
%TD*%
%TA.AperFunction,SMDPad,CuDef*%
%ADD12R,0.700000X1.500000*%
%TD*%
%TA.AperFunction,ComponentPad*%
%ADD13C,2.032000*%
%TD*%
%TA.AperFunction,SMDPad,CuDef*%
%ADD14R,2.600000X2.600000*%
%TD*%
%TA.AperFunction,ComponentPad*%
%ADD15C,0.600000*%
%TD*%
%TA.AperFunction,SMDPad,CuDef*%
%ADD16R,0.900000X1.700000*%
%TD*%
%TA.AperFunction,ComponentPad*%
%ADD17R,1.752600X1.752600*%
%TD*%
%TA.AperFunction,ComponentPad*%
%ADD18C,1.752600*%
%TD*%
%TA.AperFunction,Conductor*%
%ADD19C,0.250000*%
%TD*%
G04 APERTURE END LIST*
D10*
%TO.P,,1*%
%TO.N,pos*%
X107450000Y9000000D03*
%TO.P,,2*%
%TO.N,GND*%
X108950000Y9000000D03*
%TD*%
D11*
%TO.P,,*%
%TO.N,*%
X112150000Y39720000D03*
X104850000Y39720000D03*
X112150000Y41930000D03*
X104850000Y41930000D03*
D12*
%TO.P,,1*%
%TO.N,pos*%
X106250000Y39070000D03*
%TO.P,,2*%
%TO.N,RAW*%
X109250000Y39070000D03*
%TO.P,,3*%
%TO.N,N/C*%
X110750000Y39070000D03*
%TD*%
D13*
%TO.P,S24,1*%
%TO.N,P21*%
X77000000Y30200000D03*
X67000000Y30200000D03*
%TO.P,S24,2*%
%TO.N,GND*%
X72000000Y28100000D03*
X72000000Y28100000D03*
%TD*%
D14*
%TO.P,S31,1*%
%TO.N,P9*%
X104725000Y5950000D03*
%TO.P,S31,2*%
%TO.N,GND*%
X116275000Y3750000D03*
%TD*%
D13*
%TO.P,S18,1*%
%TO.N,P3*%
X49000000Y30200000D03*
X59000000Y30200000D03*
%TO.P,S18,2*%
%TO.N,GND*%
X54000000Y28100000D03*
X54000000Y28100000D03*
%TD*%
%TO.P,S6,1*%
%TO.N,P19*%
X13000000Y30200000D03*
X23000000Y30200000D03*
%TO.P,S6,2*%
%TO.N,GND*%
X18000000Y28100000D03*
X18000000Y28100000D03*
%TD*%
D15*
%TO.P,REF\u002A\u002A,1*%
%TO.N,RAW*%
X107500000Y37000000D03*
%TD*%
D14*
%TO.P,S15,1*%
%TO.N,P14*%
X50725000Y22950000D03*
%TO.P,S15,2*%
%TO.N,GND*%
X62275000Y20750000D03*
%TD*%
D13*
%TO.P,S28,1*%
%TO.N,P18*%
X95000000Y13200000D03*
X85000000Y13200000D03*
%TO.P,S28,2*%
%TO.N,GND*%
X90000000Y11100000D03*
X90000000Y11100000D03*
%TD*%
%TO.P,S8,1*%
%TO.N,P5*%
X31000000Y-3800000D03*
X41000000Y-3800000D03*
%TO.P,S8,2*%
%TO.N,GND*%
X36000000Y-5900000D03*
X36000000Y-5900000D03*
%TD*%
D14*
%TO.P,S19,1*%
%TO.N,P7*%
X68725000Y5950000D03*
%TO.P,S19,2*%
%TO.N,GND*%
X80275000Y3750000D03*
%TD*%
%TO.P,S11,1*%
%TO.N,P20*%
X32725000Y39950000D03*
%TO.P,S11,2*%
%TO.N,GND*%
X44275000Y37750000D03*
%TD*%
%TO.P,S7,1*%
%TO.N,P5*%
X32725000Y5950000D03*
%TO.P,S7,2*%
%TO.N,GND*%
X44275000Y3750000D03*
%TD*%
D13*
%TO.P,S22,1*%
%TO.N,P15*%
X67000000Y13200000D03*
X77000000Y13200000D03*
%TO.P,S22,2*%
%TO.N,GND*%
X72000000Y11100000D03*
X72000000Y11100000D03*
%TD*%
D14*
%TO.P,S27,1*%
%TO.N,P18*%
X86725000Y22950000D03*
%TO.P,S27,2*%
%TO.N,GND*%
X98275000Y20750000D03*
%TD*%
%TO.P,S9,1*%
%TO.N,P16*%
X32725000Y22950000D03*
%TO.P,S9,2*%
%TO.N,GND*%
X44275000Y20750000D03*
%TD*%
D13*
%TO.P,S12,1*%
%TO.N,P20*%
X41000000Y30200000D03*
X31000000Y30200000D03*
%TO.P,S12,2*%
%TO.N,GND*%
X36000000Y28100000D03*
X36000000Y28100000D03*
%TD*%
D15*
%TO.P,REF\u002A\u002A,1*%
%TO.N,pos*%
X109500000Y37000000D03*
%TD*%
D16*
%TO.P,,1*%
%TO.N,RST*%
X106800000Y33000000D03*
%TO.P,,2*%
%TO.N,GND*%
X110200000Y33000000D03*
%TD*%
D14*
%TO.P,S17,1*%
%TO.N,P3*%
X50725000Y39950000D03*
%TO.P,S17,2*%
%TO.N,GND*%
X62275000Y37750000D03*
%TD*%
%TO.P,S21,1*%
%TO.N,P15*%
X68725000Y22950000D03*
%TO.P,S21,2*%
%TO.N,GND*%
X80275000Y20750000D03*
%TD*%
%TO.P,S25,1*%
%TO.N,P8*%
X86725000Y5950000D03*
%TO.P,S25,2*%
%TO.N,GND*%
X98275000Y3750000D03*
%TD*%
D13*
%TO.P,S26,1*%
%TO.N,P8*%
X85000000Y-3800000D03*
X95000000Y-3800000D03*
%TO.P,S26,2*%
%TO.N,GND*%
X90000000Y-5900000D03*
X90000000Y-5900000D03*
%TD*%
D14*
%TO.P,S3,1*%
%TO.N,P10*%
X14725000Y22950000D03*
%TO.P,S3,2*%
%TO.N,GND*%
X26275000Y20750000D03*
%TD*%
%TO.P,S5,1*%
%TO.N,P19*%
X14725000Y39950000D03*
%TO.P,S5,2*%
%TO.N,GND*%
X26275000Y37750000D03*
%TD*%
D13*
%TO.P,S2,1*%
%TO.N,P4*%
X23000000Y-3800000D03*
X13000000Y-3800000D03*
%TO.P,S2,2*%
%TO.N,GND*%
X18000000Y-5900000D03*
X18000000Y-5900000D03*
%TD*%
%TO.P,S16,1*%
%TO.N,P14*%
X49000000Y13200000D03*
X59000000Y13200000D03*
%TO.P,S16,2*%
%TO.N,GND*%
X54000000Y11100000D03*
X54000000Y11100000D03*
%TD*%
%TO.P,S30,1*%
%TO.N,P2*%
X85000000Y30200000D03*
X95000000Y30200000D03*
%TO.P,S30,2*%
%TO.N,GND*%
X90000000Y28100000D03*
X90000000Y28100000D03*
%TD*%
%TO.P,S14,1*%
%TO.N,P6*%
X59000000Y-3800000D03*
X49000000Y-3800000D03*
%TO.P,S14,2*%
%TO.N,GND*%
X54000000Y-5900000D03*
X54000000Y-5900000D03*
%TD*%
%TO.P,S4,1*%
%TO.N,P10*%
X23000000Y13200000D03*
X13000000Y13200000D03*
%TO.P,S4,2*%
%TO.N,GND*%
X18000000Y11100000D03*
X18000000Y11100000D03*
%TD*%
%TO.P,S32,1*%
%TO.N,P9*%
X103000000Y-3800000D03*
X113000000Y-3800000D03*
%TO.P,S32,2*%
%TO.N,GND*%
X108000000Y-5900000D03*
X108000000Y-5900000D03*
%TD*%
D15*
%TO.P,REF\u002A\u002A,1*%
%TO.N,GND*%
X107500000Y30500000D03*
%TD*%
D14*
%TO.P,S29,1*%
%TO.N,P2*%
X86725000Y39950000D03*
%TO.P,S29,2*%
%TO.N,GND*%
X98275000Y37750000D03*
%TD*%
%TO.P,S13,1*%
%TO.N,P6*%
X50725000Y5950000D03*
%TO.P,S13,2*%
%TO.N,GND*%
X62275000Y3750000D03*
%TD*%
%TO.P,S23,1*%
%TO.N,P21*%
X68725000Y39950000D03*
%TO.P,S23,2*%
%TO.N,GND*%
X80275000Y37750000D03*
%TD*%
D13*
%TO.P,S20,1*%
%TO.N,P7*%
X77000000Y-3800000D03*
X67000000Y-3800000D03*
%TO.P,S20,2*%
%TO.N,GND*%
X72000000Y-5900000D03*
X72000000Y-5900000D03*
%TD*%
D17*
%TO.P,MCU1,1*%
%TO.N,RAW*%
X100980000Y38270000D03*
D18*
%TO.P,MCU1,2*%
%TO.N,GND*%
X100980000Y35730000D03*
%TO.P,MCU1,3*%
%TO.N,RST*%
X100980000Y33190000D03*
%TO.P,MCU1,4*%
%TO.N,VCC*%
X100980000Y30650000D03*
%TO.P,MCU1,5*%
%TO.N,P21*%
X100980000Y28110000D03*
%TO.P,MCU1,6*%
%TO.N,P20*%
X100980000Y25570000D03*
%TO.P,MCU1,7*%
%TO.N,P19*%
X100980000Y23030000D03*
%TO.P,MCU1,8*%
%TO.N,P18*%
X100980000Y20490000D03*
%TO.P,MCU1,9*%
%TO.N,P15*%
X100980000Y17950000D03*
%TO.P,MCU1,10*%
%TO.N,P14*%
X100980000Y15410000D03*
%TO.P,MCU1,11*%
%TO.N,P16*%
X100980000Y12870000D03*
%TO.P,MCU1,12*%
%TO.N,P10*%
X100980000Y10330000D03*
%TO.P,MCU1,13*%
%TO.N,P1*%
X116220000Y38270000D03*
%TO.P,MCU1,14*%
%TO.N,P0*%
X116220000Y35730000D03*
%TO.P,MCU1,15*%
%TO.N,GND*%
X116220000Y33190000D03*
%TO.P,MCU1,16*%
X116220000Y30650000D03*
%TO.P,MCU1,17*%
%TO.N,P2*%
X116220000Y28110000D03*
%TO.P,MCU1,18*%
%TO.N,P3*%
X116220000Y25570000D03*
%TO.P,MCU1,19*%
%TO.N,P4*%
X116220000Y23030000D03*
%TO.P,MCU1,20*%
%TO.N,P5*%
X116220000Y20490000D03*
%TO.P,MCU1,21*%
%TO.N,P6*%
X116220000Y17950000D03*
%TO.P,MCU1,22*%
%TO.N,P7*%
X116220000Y15410000D03*
%TO.P,MCU1,23*%
%TO.N,P8*%
X116220000Y12870000D03*
%TO.P,MCU1,24*%
%TO.N,P9*%
X116220000Y10330000D03*
%TD*%
D15*
%TO.P,REF\u002A\u002A,1*%
%TO.N,RST*%
X109500000Y30500000D03*
%TD*%
D13*
%TO.P,S10,1*%
%TO.N,P16*%
X41000000Y13200000D03*
X31000000Y13200000D03*
%TO.P,S10,2*%
%TO.N,GND*%
X36000000Y11100000D03*
X36000000Y11100000D03*
%TD*%
D14*
%TO.P,S1,1*%
%TO.N,P4*%
X14725000Y5950000D03*
%TO.P,S1,2*%
%TO.N,GND*%
X26275000Y3750000D03*
%TD*%
D19*
%TO.N,pos*%
X110975000Y35525000D02*
X110975000Y16995000D01*
X107450000Y9000000D02*
X107450000Y13470000D01*
X107450000Y13470000D02*
X110975000Y16995000D01*
%TO.N,GND*%
X98275000Y37750000D02*
X98960000Y37750000D01*
X98960000Y37750000D02*
X100980000Y35730000D01*
X98275000Y20750000D02*
X98275000Y28725000D01*
X98275000Y28725000D02*
X98275000Y37750000D01*
X97650000Y28100000D02*
X98275000Y28725000D01*
X90000000Y28100000D02*
X97650000Y28100000D01*
%TO.N,pos*%
X106250000Y35990000D02*
X106680000Y35560000D01*
X106250000Y39070000D02*
X106250000Y35990000D01*
X106680000Y35560000D02*
X108060000Y35560000D01*
X108060000Y35560000D02*
X109500000Y37000000D01*
%TO.N,RAW*%
X109250000Y39070000D02*
X109250000Y38750000D01*
X109250000Y38750000D02*
X107500000Y37000000D01*
%TO.N,RST*%
X106800000Y33000000D02*
X101170000Y33000000D01*
X101170000Y33000000D02*
X100980000Y33190000D01*
%TO.N,pos*%
X109500000Y37000000D02*
X110975000Y35525000D01*
%TO.N,GND*%
X110200000Y33000000D02*
X110200000Y30316116D01*
X109758884Y29875000D02*
X108125000Y29875000D01*
X110200000Y30316116D02*
X109758884Y29875000D01*
X108125000Y29875000D02*
X107500000Y30500000D01*
%TO.N,RST*%
X106800000Y33000000D02*
X107000000Y33000000D01*
X107000000Y33000000D02*
X109500000Y30500000D01*
%TO.N,GND*%
X90000000Y28100000D02*
X81440000Y28100000D01*
X81440000Y28100000D02*
X72000000Y28100000D01*
X80275000Y37750000D02*
X80275000Y29265000D01*
X80275000Y29265000D02*
X81440000Y28100000D01*
X54000000Y28100000D02*
X45880000Y28100000D01*
X45880000Y28100000D02*
X36000000Y28100000D01*
X44275000Y29705000D02*
X45880000Y28100000D01*
X44275000Y37750000D02*
X44275000Y29705000D01*
X36000000Y28100000D02*
X18000000Y28100000D01*
X72000000Y28100000D02*
X54000000Y28100000D01*
X26275000Y20750000D02*
X26275000Y13575000D01*
X26275000Y13575000D02*
X23800000Y11100000D01*
X23800000Y11100000D02*
X18000000Y11100000D01*
X36000000Y11100000D02*
X41580000Y11100000D01*
X44275000Y13795000D02*
X44275000Y20750000D01*
X41580000Y11100000D02*
X44275000Y13795000D01*
X80275000Y20750000D02*
X80275000Y14235000D01*
X80275000Y14235000D02*
X77140000Y11100000D01*
X77140000Y11100000D02*
X72000000Y11100000D01*
X26275000Y3750000D02*
X26275000Y-4205000D01*
X26275000Y-4205000D02*
X24580000Y-5900000D01*
X24580000Y-5900000D02*
X18000000Y-5900000D01*
X62275000Y3750000D02*
X62275000Y-3765000D01*
X62275000Y-3765000D02*
X60140000Y-5900000D01*
X60140000Y-5900000D02*
X54000000Y-5900000D01*
X80275000Y3750000D02*
X80275000Y-3545000D01*
X80275000Y-3545000D02*
X77920000Y-5900000D01*
X77920000Y-5900000D02*
X72000000Y-5900000D01*
X98275000Y3750000D02*
X98275000Y-3325000D01*
X98275000Y-3325000D02*
X95700000Y-5900000D01*
X95700000Y-5900000D02*
X90000000Y-5900000D01*
X116275000Y3750000D02*
X116275000Y-3105000D01*
X116275000Y-3105000D02*
X113480000Y-5900000D01*
X113480000Y-5900000D02*
X108000000Y-5900000D01*
X116275000Y3750000D02*
X111025000Y9000000D01*
X111025000Y9000000D02*
X108950000Y9000000D01*
%TO.N,P16*%
X100980000Y12870000D02*
X96385001Y8275001D01*
X35924999Y8275001D02*
X31000000Y13200000D01*
X96385001Y8275001D02*
X35924999Y8275001D01*
%TO.N,P14*%
X94295001Y8725001D02*
X100980000Y15410000D01*
%TO.N,P18*%
X100980000Y20490000D02*
X100980000Y19700000D01*
X95000000Y13720000D02*
X95000000Y13200000D01*
X100980000Y19700000D02*
X95000000Y13720000D01*
%TO.N,P15*%
X100980000Y17950000D02*
X100980000Y17283539D01*
X100980000Y17283539D02*
X92913180Y9216719D01*
X92913180Y9216719D02*
X70983281Y9216719D01*
X70983281Y9216719D02*
X67000000Y13200000D01*
%TO.N,P14*%
X94295001Y8725001D02*
X53474999Y8725001D01*
X53474999Y8725001D02*
X49000000Y13200000D01*
%TO.N,P10*%
X12700000Y12900000D02*
X13000000Y13200000D01*
X12700000Y12700000D02*
X12700000Y12900000D01*
X17574999Y7825001D02*
X12700000Y12700000D01*
X17574999Y7825001D02*
X98475001Y7825001D01*
X98475001Y7825001D02*
X100980000Y10330000D01*
%TO.N,P6*%
X49000000Y-3800000D02*
X49000000Y-1553303D01*
X49000000Y-1553303D02*
X50875001Y321698D01*
X50875001Y5799999D02*
X50875001Y321698D01*
X50725000Y5950000D02*
X50875001Y5799999D01*
%TO.N,P8*%
X86725000Y5950000D02*
X86875001Y6100001D01*
X86875001Y6100001D02*
X86875001Y-1924999D01*
X86875001Y-1924999D02*
X85000000Y-3800000D01*
%TO.N,P9*%
X104725000Y5950000D02*
X104875001Y6100001D01*
X104875001Y6100001D02*
X104875001Y-1924999D01*
X104875001Y-1924999D02*
X103000000Y-3800000D01*
%TO.N,P4*%
X15240000Y-1560000D02*
X15240000Y5435000D01*
X15240000Y5435000D02*
X14725000Y5950000D01*
X13000000Y-3800000D02*
X15240000Y-1560000D01*
%TO.N,P10*%
X14875001Y15075001D02*
X13000000Y13200000D01*
X14725000Y22950000D02*
X14875001Y23100001D01*
X14875001Y23100001D02*
X14875001Y15075001D01*
%TO.N,P19*%
X13000000Y30200000D02*
X15240000Y32440000D01*
X15240000Y32440000D02*
X15240000Y39435000D01*
X15240000Y39435000D02*
X14725000Y39950000D01*
%TO.N,P5*%
X31000000Y-3800000D02*
X33020000Y-1780000D01*
X33020000Y-1780000D02*
X33020000Y5080000D01*
%TO.N,P16*%
X32725000Y22950000D02*
X32875001Y23100001D01*
X32875001Y15075001D02*
X31000000Y13200000D01*
X32875001Y23100001D02*
X32875001Y15075001D01*
%TO.N,P20*%
X33020000Y32220000D02*
X33020000Y39655000D01*
X31000000Y30200000D02*
X33020000Y32220000D01*
X33020000Y39655000D02*
X32725000Y39950000D01*
%TO.N,P14*%
X50725000Y22950000D02*
X50875001Y22799999D01*
X50875001Y15075001D02*
X49000000Y13200000D01*
X50875001Y22799999D02*
X50875001Y15075001D01*
%TO.N,P3*%
X48540000Y30200000D02*
X49000000Y30200000D01*
X48260000Y30480000D02*
X48540000Y30200000D01*
X50875001Y33095001D02*
X48260000Y30480000D01*
X50875001Y39799999D02*
X50875001Y33095001D01*
X50725000Y39950000D02*
X50875001Y39799999D01*
%TO.N,P7*%
X67000000Y-3800000D02*
X68875001Y-1924999D01*
X68875001Y-1924999D02*
X68875001Y5080000D01*
%TO.N,P15*%
X66500000Y12700000D02*
X67000000Y13200000D01*
X68725000Y22950000D02*
X68875001Y22799999D01*
X68875001Y15075001D02*
X67000000Y13200000D01*
X68875001Y22799999D02*
X68875001Y15075001D01*
%TO.N,P21*%
X68725000Y39950000D02*
X68875001Y40100001D01*
X68875001Y40100001D02*
X68875001Y32075001D01*
X68875001Y32075001D02*
X67000000Y30200000D01*
%TO.N,P18*%
X85000000Y13200000D02*
X86875001Y15075001D01*
X86875001Y15075001D02*
X86875001Y22799999D01*
X86875001Y22799999D02*
X86725000Y22950000D01*
%TO.N,P2*%
X86875001Y32075001D02*
X86875001Y39799999D01*
X86875001Y39799999D02*
X86725000Y39950000D01*
X85000000Y30200000D02*
X86875001Y32075001D01*
%TD*%
M02*
