solid csg.js
facet normal 0 0 -1
outer loop
vertex -2.5 2.5 0
vertex 2.5 2.5 0
vertex 2.5 -2.5 0
endloop
endfacet
facet normal 0 0 -1
outer loop
vertex -2.5 2.5 0
vertex 2.5 -2.5 0
vertex -2.5 -2.5 0
endloop
endfacet
facet normal 0 0 1
outer loop
vertex -2.5 2.5 5
vertex -2.5 -2.5 5
vertex 2.5 -2.5 5
endloop
endfacet
facet normal 0 0 1
outer loop
vertex -2.5 2.5 5
vertex 2.5 -2.5 5
vertex 2.5 2.5 5
endloop
endfacet
facet normal 0 -1 0
outer loop
vertex 2.5 -2.5 0
vertex 2.5 -2.5 5
vertex -2.5 -2.5 5
endloop
endfacet
facet normal 0 -1 0
outer loop
vertex 2.5 -2.5 0
vertex -2.5 -2.5 5
vertex -2.5 -2.5 0
endloop
endfacet
facet normal 1 0 0
outer loop
vertex 2.5 2.5 0
vertex 2.5 2.5 5
vertex 2.5 -2.5 5
endloop
endfacet
facet normal 1 0 0
outer loop
vertex 2.5 2.5 0
vertex 2.5 -2.5 5
vertex 2.5 -2.5 0
endloop
endfacet
facet normal 0 1 0
outer loop
vertex 2.5 2.5 5
vertex 2.5 2.5 0
vertex -2.5 2.5 0
endloop
endfacet
facet normal 0 1 0
outer loop
vertex 2.5 2.5 5
vertex -2.5 2.5 0
vertex -2.5 2.5 5
endloop
endfacet
facet normal -1 0 0
outer loop
vertex -2.5 2.5 5
vertex -2.5 2.5 0
vertex -2.5 -2.5 0
endloop
endfacet
facet normal -1 0 0
outer loop
vertex -2.5 2.5 5
vertex -2.5 -2.5 0
vertex -2.5 -2.5 5
endloop
endfacet
endsolid csg.js
